<?xml version="1.0" standalone="no"?>
<!DOCTYPE svg PUBLIC "-//W3C//DTD SVG 20010904//EN"
 "http://www.w3.org/TR/2001/REC-SVG-20010904/DTD/svg10.dtd">
<svg version="1.0" xmlns="http://www.w3.org/2000/svg"
 width="1024.000000pt" height="1024.000000pt" viewBox="0 0 1024.000000 1024.000000"
 preserveAspectRatio="xMidYMid meet">

<g transform="translate(0.000000,1024.000000) scale(0.100000,-0.100000)"
fill="currentColor" stroke="none">
<path d="M4335 10019 c-210 -18 -482 -76 -720 -154 -520 -170 -1040 -484
-1429 -863 -212 -207 -277 -335 -321 -627 -15 -105 -22 -472 -10 -608 3 -34
10 -120 16 -190 9 -104 8 -131 -3 -144 -7 -9 -60 -57 -118 -106 -436 -370
-630 -672 -568 -880 17 -56 112 -156 185 -194 148 -79 513 -149 742 -143 82 2
91 1 91 -11 0 -6 -43 -55 -96 -108 -52 -53 -120 -132 -150 -177 -101 -151
-196 -383 -240 -583 -9 -42 -23 -83 -31 -92 -8 -10 -35 -20 -61 -24 -80 -11
-176 -43 -223 -74 -58 -39 -81 -61 -129 -125 -23 -30 -49 -57 -58 -61 -9 -4
-138 -40 -287 -81 -269 -74 -295 -85 -295 -125 0 -97 69 -473 131 -709 185
-710 594 -1405 1159 -1970 328 -328 667 -569 1118 -794 265 -133 369 -178 582
-251 504 -173 1116 -249 1621 -200 565 54 1054 227 1517 537 126 84 182 134
182 160 0 54 -125 393 -221 601 -32 70 -59 134 -59 141 0 8 37 49 83 91 104
98 157 163 157 195 0 32 -47 130 -142 295 -88 154 -177 314 -245 445 -28 52
-101 192 -163 310 -120 228 -140 276 -113 266 24 -10 210 -56 266 -67 28 -5
96 -31 151 -58 123 -60 167 -74 321 -106 140 -29 138 -27 259 -210 125 -188
119 -171 127 -400 6 -162 5 -214 -8 -273 -12 -57 -13 -85 -4 -133 11 -66 26
-92 116 -194 87 -101 113 -137 148 -213 30 -66 31 -70 33 -232 2 -198 10 -221
110 -327 35 -37 64 -75 64 -84 0 -26 48 -158 74 -205 22 -40 23 -46 11 -81 -8
-22 -18 -89 -24 -151 -8 -91 -8 -129 5 -200 17 -99 46 -196 52 -170 2 9 -1 25
-7 35 -5 10 -12 52 -16 93 l-6 75 24 -57 c49 -114 140 -226 242 -294 148 -100
408 -177 539 -159 249 32 409 145 512 360 32 67 38 93 42 160 3 56 -1 93 -12
125 -13 38 -14 55 -4 108 12 66 2 151 -28 240 -22 68 -20 267 5 379 34 150 78
276 147 416 36 73 72 157 81 187 10 35 31 73 59 105 53 59 78 129 69 184 -4
22 -25 75 -47 118 -111 215 -119 237 -138 378 -10 77 -10 103 4 180 53 288 54
361 2 463 -29 57 -62 85 -152 130 -54 27 -66 39 -101 99 -51 85 -66 122 -94
226 -44 161 -120 233 -261 244 -35 2 -84 13 -110 24 -25 10 -91 24 -145 29
-199 22 -240 30 -331 65 -131 50 -179 59 -249 45 -59 -12 -85 -24 -203 -97
-96 -59 -135 -70 -266 -82 -65 -6 -143 -16 -172 -22 -47 -9 -60 -8 -100 9 -50
21 -227 70 -281 77 -17 2 -53 19 -79 38 -72 53 -104 66 -241 101 l-126 33 -8
69 c-13 117 -11 137 16 199 l26 60 68 6 c229 19 389 171 424 404 12 82 5 138
-33 273 -8 28 -9 47 -3 56 6 7 43 57 84 110 92 123 150 235 196 384 56 181 58
185 94 207 19 11 47 32 62 47 l29 26 0 130 c0 126 -1 132 -26 161 -19 23 -46
37 -107 56 -72 21 -225 57 -312 72 -16 3 -30 6 -30 6 -37 131 -51 174 -79 230
l-34 67 71 62 c147 128 344 335 440 463 157 209 247 418 247 573 0 284 -187
459 -596 560 -213 53 -435 77 -814 87 l-185 5 -28 32 c-15 18 -44 58 -65 88
-20 30 -78 110 -129 176 -120 158 -202 281 -246 371 -71 144 -122 200 -237
262 -91 49 -197 75 -383 96 -149 16 -434 18 -602 4z m509 -109 c150 -13 317
-50 400 -89 83 -40 145 -109 215 -237 64 -117 139 -228 295 -435 64 -84 116
-156 116 -161 0 -4 -15 -8 -32 -9 -18 0 -60 -2 -93 -5 -125 -10 -145 -10 -145
-2 0 12 -58 10 -105 -3 -35 -10 -37 -13 -20 -20 13 -6 7 -7 -17 -3 -25 4 -38
2 -38 -5 0 -6 -7 -11 -16 -11 -8 0 -12 5 -9 10 3 6 -1 10 -9 10 -8 0 -19 -7
-23 -14 -9 -16 -65 -21 -118 -12 -26 5 -27 5 -5 -2 23 -8 20 -10 -24 -19 -27
-6 -55 -9 -63 -6 -7 3 -13 0 -13 -6 0 -6 -18 -11 -43 -11 -24 0 -47 -3 -51 -7
-3 -4 -14 -8 -24 -9 -9 -1 -42 -7 -72 -14 -30 -6 -59 -12 -65 -14 -5 -1 -16
-5 -22 -9 -7 -5 -17 -6 -22 -2 -5 3 -12 1 -16 -5 -4 -6 -11 -8 -16 -4 -5 3
-15 1 -22 -4 -7 -6 -28 -12 -47 -15 -41 -7 -94 -21 -250 -70 -63 -20 -136 -41
-161 -46 -25 -6 -53 -13 -62 -17 -10 -3 -17 -1 -17 5 0 6 12 11 28 11 22 0 24
2 12 11 -12 8 -10 9 8 4 15 -4 22 -2 20 6 -2 7 21 18 54 28 67 19 83 31 40 31
-16 0 -52 9 -78 20 -46 20 -47 21 -27 35 41 29 154 76 165 69 6 -4 8 -3 5 3
-7 12 62 35 76 26 6 -3 7 -1 3 5 -7 12 1 14 61 17 11 0 29 7 38 15 14 12 18
12 26 -1 7 -11 9 -10 9 5 0 13 5 17 20 13 10 -3 20 -1 22 4 2 5 19 11 38 13
19 2 44 7 55 12 11 5 39 9 62 9 22 0 39 4 36 9 -4 5 6 7 21 4 14 -3 29 -1 32
4 3 5 20 8 38 7 17 -2 37 1 45 5 7 5 39 10 71 11 31 1 63 6 71 11 8 5 117 10
242 12 185 2 227 0 221 -10 -6 -10 -3 -9 9 1 16 12 22 8 18 -12 -1 -5 3 -5 9
-2 15 9 -16 44 -50 57 -137 55 -369 71 -615 43 -82 -9 -153 -19 -157 -21 -4
-3 -20 -7 -35 -9 -38 -5 -246 -50 -347 -76 -484 -121 -1066 -382 -1500 -672
-190 -128 -391 -287 -478 -381 -21 -22 -38 -36 -38 -31 0 31 54 235 83 320 20
55 34 101 32 103 -7 7 -103 -194 -193 -408 -10 -24 -11 -24 -11 11 -1 48 74
499 104 624 22 90 70 258 90 310 7 18 6 18 -8 5 -15 -15 -112 -205 -137 -267
-14 -36 -25 -42 -34 -17 -4 10 -2 13 7 8 8 -5 7 -2 -2 9 -7 9 -9 17 -3 17 5 0
10 11 10 24 0 58 119 320 175 383 16 18 25 33 20 33 -20 0 -275 -279 -356
-388 -47 -64 -118 -196 -135 -252 -25 -80 -44 -226 -52 -400 -4 -102 -11 -221
-14 -265 -4 -44 -8 -115 -11 -157 -2 -49 -10 -86 -21 -103 -9 -14 -18 -24 -19
-23 -2 2 -13 71 -24 153 -36 259 -25 630 25 830 20 82 75 194 127 263 146 188
477 462 777 642 371 223 850 408 1178 456 20 3 43 7 51 10 28 9 159 25 261 31
58 3 107 7 109 9 8 8 218 3 335 -6z m1681 -1050 c157 -14 405 -55 514 -86 118
-34 275 -113 341 -172 77 -69 112 -136 118 -229 11 -166 -55 -328 -221 -548
-100 -131 -453 -475 -489 -475 -24 0 3 33 84 105 89 78 291 299 348 380 41 57
114 200 136 265 27 81 26 230 -2 291 -58 125 -222 236 -437 295 -70 20 -74 21
-134 29 -29 4 -53 10 -53 14 0 3 -21 7 -47 8 -27 1 -94 7 -149 13 -121 14
-535 18 -684 8 -183 -14 -552 -68 -770 -114 -758 -161 -1503 -455 -2015 -797
-227 -151 -410 -295 -545 -427 -141 -138 -299 -336 -363 -455 -37 -69 -13 -6
31 84 78 156 125 232 181 294 14 15 20 27 14 27 -16 0 -151 -154 -203 -230
-76 -112 -143 -288 -152 -403 -2 -21 -5 -24 -16 -14 -8 6 -24 12 -35 14 -17 2
-19 1 -7 -6 8 -5 18 -7 24 -4 5 4 6 1 1 -7 -5 -9 -4 -11 3 -6 7 4 12 2 12 -3
0 -14 -17 -14 -25 0 -4 6 -14 8 -22 5 -8 -3 -11 -1 -8 4 3 6 0 10 -7 10 -9 0
-9 3 2 10 11 8 12 12 3 18 -9 6 -7 13 9 27 28 24 8 32 -25 11 -13 -9 -27 -13
-32 -9 -4 5 -6 3 -2 -2 3 -6 -4 -17 -15 -24 -19 -12 -20 -11 -16 7 3 10 2 26
-3 34 -5 10 -2 22 11 36 11 12 20 24 20 28 0 4 10 18 22 31 29 31 4 30 -38 -2
-42 -32 -53 -32 -17 0 17 15 21 23 10 19 -10 -4 -17 -1 -17 7 0 9 -8 5 -22 -9
-20 -20 -21 -25 -9 -45 14 -22 14 -22 -7 -4 -12 12 -18 25 -14 35 9 25 35 52
44 46 5 -3 7 -1 6 3 -2 5 11 22 27 37 25 23 16 20 -65 -21 -81 -40 -110 -63
-195 -148 -213 -214 -240 -391 -71 -477 100 -51 383 -98 590 -98 82 0 107 -3
99 -11 -19 -19 -349 -5 -463 20 -251 56 -342 92 -421 171 -61 61 -71 86 -58
158 45 242 497 690 1078 1067 329 213 895 505 1306 672 456 186 1043 367 1440
444 269 52 492 83 680 95 55 4 102 8 104 10 9 8 503 3 616 -6z m-2286 -204
c-2 -2 -17 -6 -34 -9 l-30 -6 30 13 c26 12 47 13 34 2z m-1823 -62 c-3 -9 -6
-20 -6 -25 0 -5 -4 -9 -10 -9 -11 0 -14 33 -3 43 12 13 25 7 19 -9z m3274
-207 c30 -3 64 -6 75 -7 11 0 22 -5 25 -10 3 -4 30 -17 60 -29 36 -13 48 -15
36 -6 -11 8 -24 15 -30 15 -5 0 -7 3 -3 6 3 3 38 -10 79 -29 176 -84 339 -276
409 -482 11 -34 14 -37 17 -16 6 40 -61 271 -79 271 -6 0 -8 4 -4 10 3 5 -15
39 -40 75 -25 36 -43 65 -40 65 16 0 63 -31 68 -44 4 -9 13 -13 21 -10 16 6
43 -13 94 -66 18 -19 38 -34 44 -32 5 1 7 -2 4 -7 -4 -5 5 -27 19 -48 33 -47
41 -55 26 -23 l-12 25 20 -25 c41 -50 98 -240 141 -475 39 -211 73 -345 87
-345 21 0 102 -110 119 -163 10 -30 13 -58 9 -75 -8 -26 -8 -26 -17 13 -9 43
-28 71 -28 42 0 -18 -45 -41 -61 -31 -5 3 -9 2 -9 -3 0 -4 -10 -8 -22 -9 -13
-1 -61 -11 -108 -24 -68 -18 -114 -23 -230 -24 -155 -1 -190 8 -233 58 -10 11
-15 15 -11 7 4 -9 3 -12 -3 -8 -6 4 -11 19 -13 34 -6 80 -2 93 50 158 28 35
65 75 81 90 17 14 25 25 19 25 -17 0 -104 -65 -170 -125 -59 -55 -118 -93
-153 -99 -12 -2 -35 4 -52 12 -16 9 -33 15 -37 14 -7 -2 -11 12 -10 29 1 9
-99 110 -160 161 -67 57 -207 158 -218 158 -4 0 22 -30 59 -67 67 -68 131
-172 131 -213 0 -17 -4 -20 -22 -15 -65 19 -65 19 -34 -13 l28 -30 -63 18
c-35 10 -99 27 -141 39 -42 12 -85 24 -95 27 -10 3 -4 -3 12 -15 l30 -21 -38
5 c-21 3 -46 9 -56 14 -9 5 -54 19 -100 31 -46 11 -124 34 -174 51 -126 41
-177 50 -285 50 -84 -1 -107 -5 -215 -42 -67 -23 -153 -57 -190 -76 -48 -24
-68 -30 -65 -20 7 34 135 173 218 238 84 66 111 96 75 83 -18 -7 -16 29 3 48
7 7 12 18 12 26 0 10 -3 10 -16 -2 -26 -26 -43 -19 -49 22 -13 78 -29 138 -42
153 -15 18 -17 33 -3 24 6 -3 10 1 10 10 0 11 -5 15 -15 11 -12 -4 -14 0 -8
22 6 24 5 26 -11 13 -14 -12 -16 -12 -11 1 3 8 -8 43 -25 79 -45 95 -41 128
19 188 97 96 311 189 582 252 205 48 218 50 307 50 45 1 80 4 78 7 -5 8 254 7
334 -1z m491 -154 c13 -16 12 -17 -3 -4 -10 7 -18 15 -18 17 0 8 8 3 21 -13z
m-2184 -483 c38 0 91 -164 58 -176 -8 -4 -15 -12 -15 -20 0 -8 -4 -14 -10 -14
-6 0 -10 -26 -10 -59 0 -33 -5 -63 -11 -67 -6 -3 -9 -17 -6 -30 2 -13 0 -21
-4 -18 -5 3 -9 -2 -9 -10 0 -8 4 -18 10 -21 6 -4 4 -16 -6 -31 -9 -13 -14 -24
-11 -24 20 0 -78 -77 -122 -97 -38 -17 -51 -27 -42 -33 10 -6 3 -13 -23 -25
-38 -18 -39 -34 -3 -36 15 -1 11 -4 -13 -11 -38 -10 -104 -73 -94 -89 3 -6 -3
-13 -15 -16 -12 -3 -18 -10 -14 -17 5 -8 3 -8 -8 1 -11 9 -20 5 -43 -18 -17
-16 -62 -45 -100 -63 -104 -50 -257 -118 -270 -120 -26 -5 -265 -131 -304
-161 -43 -34 -206 -205 -315 -332 -60 -70 -62 -71 -65 -43 -2 16 4 40 14 54
12 20 14 29 5 39 -8 10 -7 14 4 14 8 0 12 -4 9 -8 -2 -4 0 -11 6 -14 15 -9 40
13 40 35 0 9 10 29 21 44 12 15 30 60 40 100 30 118 92 270 123 301 35 37 65
75 59 75 -5 0 -33 -18 -62 -40 -30 -22 -56 -38 -58 -36 -16 15 126 244 220
354 190 225 502 462 638 486 33 6 41 3 78 -33 23 -22 41 -43 41 -48 0 -4 -8 1
-16 12 -15 20 -15 19 -12 -5 2 -14 9 -24 16 -22 24 4 32 -49 29 -193 -2 -80 0
-140 4 -133 38 69 56 385 27 486 -19 66 -2 52 24 -20 l19 -53 -6 57 c-5 41 -3
58 7 64 16 11 116 23 143 18 11 -2 26 -4 32 -4z m83 -396 c0 -8 -19 -13 -24
-6 -3 5 1 9 9 9 8 0 15 -2 15 -3z m-56 -60 c3 -8 2 -12 -4 -9 -6 3 -10 10 -10
16 0 14 7 11 14 -7z m-44 -48 c0 -2 -8 -10 -17 -17 -16 -13 -17 -12 -4 4 13
16 21 21 21 13z m-107 -83 c-7 -2 -19 -2 -25 0 -7 3 -2 5 12 5 14 0 19 -2 13
-5z m1051 -48 c321 -54 610 -121 710 -166 55 -24 111 -71 131 -109 8 -15 21
-56 29 -91 14 -63 14 -65 -14 -129 -15 -36 -29 -71 -32 -79 -2 -7 -5 33 -6 90
-5 195 -41 244 -228 304 -238 77 -486 119 -663 113 -185 -7 -276 -50 -330
-157 -26 -49 -50 -175 -44 -231 3 -36 2 -41 -7 -27 -6 9 -15 15 -19 13 -7 -4
-9 38 -11 202 0 17 7 47 15 65 8 17 13 23 10 12 -4 -17 -2 -16 13 5 9 13 29
37 44 54 15 16 25 33 22 38 -3 5 -2 8 3 7 18 -3 31 2 53 21 13 11 33 20 46 20
13 0 26 5 30 12 8 13 -267 4 -321 -10 -27 -8 -30 -13 -33 -53 -4 -67 -11 -91
-25 -82 -7 4 -5 -2 3 -12 12 -15 12 -17 1 -10 -11 6 -13 4 -8 -8 8 -21 3 -21
-17 -1 -17 16 -21 87 -10 156 6 36 8 38 63 49 222 47 335 47 595 4z m-1178
-102 c-35 -30 -58 -30 -26 0 14 13 31 24 39 24 8 0 3 -10 -13 -24z m387 -24
c-10 -10 -65 -36 -123 -59 -58 -23 -118 -47 -135 -55 -16 -7 -55 -22 -85 -35
-143 -57 -326 -133 -335 -138 -5 -4 -17 -7 -25 -9 -31 -4 -89 -36 -83 -46 3
-6 1 -7 -6 -3 -15 10 -102 -15 -108 -31 -3 -6 -11 -9 -19 -6 -8 3 -24 -1 -37
-9 -12 -8 -59 -27 -104 -42 -45 -15 -100 -40 -122 -56 l-40 -29 10 29 c14 39
46 56 287 154 181 73 595 243 852 350 72 30 86 33 88 19 2 -8 -4 -24 -15 -34z
m372 30 c4 -11 5 -22 3 -23 -1 -2 -35 -1 -75 2 -54 3 -70 7 -66 18 5 15 29 21
90 23 34 1 43 -3 48 -20z m416 -127 c-6 -2 -11 -8 -11 -14 0 -6 7 -8 15 -4 9
3 24 -9 43 -37 40 -58 326 -536 353 -589 12 -23 37 -64 55 -91 19 -27 34 -53
34 -57 0 -4 -23 -24 -52 -43 l-52 -35 -80 137 c-43 75 -94 163 -113 196 -18
33 -37 67 -43 75 -23 37 -141 261 -165 313 -14 33 -20 55 -13 51 7 -4 3 3 -10
16 -22 20 -22 23 -7 40 9 10 15 24 13 31 -2 8 3 13 11 11 9 -2 11 3 7 14 -6
15 -4 15 10 3 10 -8 12 -15 5 -17z m-3061 14 c0 -2 -7 -7 -16 -10 -8 -3 -12
-2 -9 4 6 10 25 14 25 6z m2894 -4 c3 -5 -1 -9 -9 -9 -8 0 -12 4 -9 9 3 4 7 8
9 8 2 0 6 -4 9 -8z m-18 -44 c14 -30 15 -31 9 -5 -9 46 13 31 59 -40 101 -159
458 -795 449 -804 -5 -5 -33 -13 -62 -19 -63 -12 -49 -24 -149 130 -61 93
-102 166 -261 463 -24 44 -40 85 -37 93 3 8 2 13 -2 10 -5 -3 -24 23 -42 58
-26 52 -30 67 -21 82 10 16 10 15 5 -8 -4 -18 -2 -28 5 -28 6 0 14 -1 18 -2 4
-2 10 10 14 27 6 20 4 36 -7 52 -8 14 -10 23 -4 23 6 0 18 -15 26 -32z m1370
-6 c55 -28 63 -40 72 -108 l7 -59 20 40 c49 97 180 130 520 129 143 -1 225 -6
290 -18 159 -30 334 -87 336 -110 3 -22 -3 -161 -7 -165 -2 -2 -12 5 -22 17
-11 12 -21 19 -25 16 -3 -3 -8 -1 -12 5 -3 6 0 11 8 11 18 0 47 43 47 69 0 16
-11 22 -57 31 -32 7 -76 16 -98 20 -28 6 -42 5 -48 -3 -7 -9 -10 -9 -14 1 -2
6 -11 12 -19 12 -8 0 -14 4 -14 8 0 4 -8 9 -17 10 -68 8 -102 15 -99 21 2 3
-12 6 -32 6 -21 1 -85 8 -144 18 -98 15 -120 16 -246 2 -170 -18 -231 -37
-289 -89 -40 -36 -46 -48 -57 -106 l-12 -65 -13 49 c-21 73 -76 121 -155 135
-74 12 -96 12 -116 -3 -13 -10 -13 -9 -1 7 7 9 20 17 28 17 8 0 12 3 10 8 -3
4 9 8 26 10 94 7 107 5 134 -19 21 -19 25 -20 20 -6 -4 12 -3 16 4 11 6 -3 9
-17 7 -29 -4 -18 -1 -22 10 -17 9 3 13 1 9 -4 -3 -6 -1 -16 4 -24 6 -10 8 -4
4 20 -12 78 -70 119 -180 127 -60 5 -83 2 -115 -12 -39 -18 -44 -25 -53 -85
-3 -14 -5 2 -6 36 -1 70 11 92 59 104 59 15 191 5 236 -18z m-1398 -36 c-3
-35 -10 -24 -13 20 -1 24 1 31 6 21 5 -8 8 -27 7 -41z m32 -257 c130 -250 205
-383 287 -511 24 -36 43 -69 43 -72 0 -12 -117 -6 -173 9 -123 32 -206 94
-254 190 l-25 50 43 -41 c55 -52 125 -99 184 -124 26 -11 48 -20 50 -20 2 0
-14 35 -36 78 -49 93 -186 400 -239 532 -44 111 -54 152 -45 181 7 21 7 21 21
1 8 -11 73 -134 144 -273z m2430 134 c0 -35 39 -96 57 -89 9 4 11 2 7 -6 -12
-18 -11 -78 0 -78 6 0 5 -5 -2 -12 -9 -9 -9 -15 1 -27 10 -12 9 -13 -2 -6 -11
6 -13 3 -9 -13 4 -12 3 -22 -1 -22 -3 0 -7 -19 -7 -41 -1 -23 -6 -44 -11 -48
-4 -3 -14 -17 -20 -31 -11 -23 -11 -22 -5 10 14 69 7 203 -13 260 -10 30 -18
61 -16 69 1 7 -2 11 -6 8 -11 -7 -11 34 0 51 12 18 27 5 27 -25z m-2976 10
c-3 -10 2 -49 10 -88 13 -59 14 -62 10 -20 -2 28 0 57 6 65 7 12 10 8 10 -16
0 -43 11 -94 20 -94 4 0 10 28 14 62 6 65 21 97 22 50 0 -15 10 -79 23 -142
12 -63 24 -135 26 -160 6 -68 51 -215 86 -278 17 -32 58 -85 91 -118 40 -41
56 -63 47 -67 -17 -6 103 -64 148 -73 18 -3 31 -10 28 -14 -2 -4 8 -7 23 -7
40 -1 112 -15 112 -22 0 -3 64 -5 142 -5 79 1 143 3 143 4 0 2 31 8 65 14 71
10 215 87 295 157 70 62 185 197 236 278 16 24 40 80 55 125 32 101 47 136 56
136 4 0 8 10 10 23 2 12 7 21 11 19 4 -2 24 11 43 27 56 50 81 40 134 -49 14
-23 50 -68 81 -99 67 -68 84 -99 108 -194 16 -63 18 -108 15 -349 -2 -201 -7
-292 -18 -333 -8 -30 -12 -55 -10 -55 6 0 37 64 50 105 l13 40 0 -52 c1 -28
-3 -63 -9 -77 -15 -40 -3 -31 20 15 17 32 21 59 21 128 0 48 -3 94 -6 103 -3
8 15 -4 40 -28 70 -64 138 -88 265 -90 57 -1 112 2 122 7 9 5 30 10 45 11 15
1 31 6 34 11 12 17 26 -1 39 -47 19 -67 9 -229 -17 -287 -57 -128 -212 -209
-303 -159 -25 14 -25 14 19 22 58 10 60 14 9 23 l-43 7 30 13 30 13 -30 5
c-18 3 -12 5 17 4 l47 -2 -32 33 c-18 18 -31 41 -29 52 2 10 -2 21 -8 25 -5 3
-10 17 -10 31 0 18 -4 23 -12 18 -9 -5 -9 -2 1 9 12 15 11 17 -11 17 -30 0
-64 -24 -90 -64 -11 -17 -18 -23 -14 -13 9 27 -2 20 -20 -14 -9 -19 -13 -42
-10 -58 5 -19 4 -22 -4 -11 -19 28 -11 -99 12 -186 24 -92 20 -110 -26 -98
-19 4 -26 13 -26 30 l0 24 -20 -20 c-11 -11 -24 -20 -29 -20 -10 0 -30 146
-25 187 2 15 -1 10 -7 -12 -5 -22 -14 -54 -19 -71 -6 -17 -10 -46 -10 -66 0
-62 -11 -99 -29 -96 -9 2 -15 -3 -13 -11 3 -12 0 -12 -12 -2 -9 7 -13 17 -10
22 3 5 2 8 -3 7 -5 -2 -26 6 -46 17 -30 16 -41 17 -56 8 -18 -11 -20 -7 -32
77 -6 49 -15 87 -19 85 -4 -3 -11 -26 -16 -52 -4 -27 -8 -51 -10 -55 -1 -5 -2
-19 -3 -32 0 -13 -7 -23 -13 -22 -7 1 -27 6 -45 10 -23 5 -42 2 -70 -12 -21
-11 -45 -17 -53 -15 -11 3 -12 2 -2 -4 9 -7 4 -15 -18 -31 -24 -18 -30 -20
-30 -7 0 8 -4 15 -10 15 -5 0 -7 8 -3 18 3 9 2 13 -3 9 -4 -4 -13 9 -19 30 -6
21 -16 38 -23 38 -7 0 -24 14 -38 30 l-26 30 7 -48 c6 -41 5 -46 -9 -41 -19 7
-104 -23 -126 -45 -13 -13 -16 -9 -20 39 -3 29 -11 55 -16 57 -6 2 -9 18 -7
36 4 25 2 29 -6 17 -9 -12 -11 -10 -11 11 0 33 -27 99 -40 99 -6 0 -10 -12
-10 -26 0 -39 -32 -168 -44 -176 -6 -4 -19 -8 -30 -8 -17 0 -18 6 -11 75 4 41
4 75 1 75 -3 0 -13 -27 -22 -60 -9 -33 -21 -60 -26 -60 -13 0 -38 26 -38 39 0
6 -6 11 -14 11 -11 0 -14 23 -15 105 -2 94 -11 155 -25 155 -3 0 -10 -26 -16
-57 -7 -32 -15 -60 -19 -63 -6 -5 -22 -37 -54 -109 l-15 -33 -21 21 c-11 11
-30 21 -40 21 -10 0 -22 7 -25 15 -4 12 -10 14 -25 5 -11 -5 -22 -10 -25 -10
-2 0 14 45 36 100 23 55 38 103 34 107 -4 4 -11 2 -15 -6 -6 -9 -10 -7 -14 8
-3 13 -1 19 5 14 8 -4 9 5 5 27 -10 46 6 60 67 61 42 0 47 2 28 10 -13 5 -20
13 -17 19 16 26 -187 68 -274 56 -48 -6 -140 -28 -174 -42 -10 -3 -17 -3 -16
2 4 21 -2 28 -12 14 -8 -11 -12 -12 -16 -2 -2 6 -10 9 -15 6 -6 -4 -8 -2 -4 4
3 6 22 16 42 22 52 18 37 20 -28 5 -46 -10 -59 -11 -68 0 -5 7 -21 10 -34 8
-13 -3 -59 5 -102 16 -88 24 -284 115 -284 132 0 6 9 9 20 6 11 -3 18 -1 14 4
-3 5 3 9 12 9 10 0 15 3 11 6 -3 4 -20 2 -36 -4 -17 -6 -33 -7 -36 -2 -3 5 5
11 17 13 21 4 20 4 -4 6 -14 0 -28 6 -30 12 -2 6 -15 12 -30 12 -14 1 -26 6
-25 12 1 5 -10 10 -25 10 -15 1 -31 5 -35 9 -4 5 3 5 17 2 24 -7 24 -6 -5 19
-16 14 -36 23 -43 20 -7 -3 -11 -1 -8 4 8 13 -84 87 -135 109 -24 11 -50 27
-58 36 -7 9 -17 16 -22 16 -5 0 -33 20 -63 44 -32 26 -87 56 -136 75 -92 35
-102 37 -94 17 4 -11 -3 -12 -34 -6 -21 3 -44 10 -50 14 -7 4 -19 0 -28 -8
-18 -18 -65 -21 -81 -5 -6 6 -41 11 -79 11 -54 0 -82 -5 -128 -26 -33 -14 -57
-29 -54 -32 3 -2 38 4 77 15 49 14 79 17 94 11 l22 -9 -22 -2 c-13 -1 -36 -3
-51 -4 -15 -1 -43 -7 -62 -14 -39 -12 -110 -73 -110 -93 1 -7 9 -3 19 10 24
28 35 29 21 1 -7 -11 -9 -27 -6 -35 3 -8 2 -24 -3 -36 -5 -15 -4 -30 6 -45 11
-16 11 -23 2 -29 -7 -4 -9 -3 -6 3 4 6 0 16 -8 23 -13 11 -14 10 -9 -6 13 -35
122 -146 136 -138 4 3 3 -7 -2 -21 -13 -33 -13 -33 3 -32 6 0 21 -1 31 -1 20
-2 20 -2 0 -18 -19 -15 -19 -15 3 -11 30 6 53 -22 50 -60 -1 -17 -4 -29 -6
-27 -9 8 -40 -29 -34 -40 3 -6 2 -8 -2 -3 -5 4 -19 0 -31 -8 -43 -28 -112 25
-124 95 -3 19 -11 34 -18 33 -7 -2 -9 4 -5 14 4 10 2 14 -5 9 -6 -3 -13 3 -17
16 -9 28 -105 129 -117 122 -5 -3 -7 0 -6 7 2 7 -3 13 -9 14 -7 0 -14 5 -14
10 -2 15 -89 125 -109 137 -18 12 -17 34 3 77 12 23 152 99 164 88 2 -3 -3
-20 -13 -39 -14 -26 3 -14 82 58 54 51 110 104 124 119 29 31 110 88 117 82 2
-3 -23 -24 -56 -48 -82 -60 -77 -70 7 -13 86 59 103 74 95 87 -3 5 -2 7 4 4 5
-3 38 5 72 19 35 14 65 23 68 21 2 -3 -12 -10 -32 -17 -20 -7 -34 -14 -32 -17
6 -6 132 44 172 69 50 30 53 20 6 -22 -24 -22 -47 -40 -52 -40 -5 0 -8 -3 -7
-7 3 -16 -15 -43 -28 -43 -8 0 -14 -4 -14 -10 0 -5 -6 -7 -14 -4 -8 3 -17 1
-20 -4 -3 -5 18 -10 47 -11 108 -4 211 -45 371 -149 60 -40 90 -53 145 -62 38
-6 84 -10 102 -8 l34 4 -45 13 c-73 21 -154 61 -171 84 l-16 22 82 -3 c114 -5
239 25 278 68 15 17 27 25 28 18 0 -10 2 -10 6 0 2 6 9 10 14 6 17 -10 9 32
-21 126 -26 76 -30 105 -28 168 l3 77 11 -45 12 -45 2 35 c1 19 5 46 9 60 7
22 9 20 14 -20 4 -25 8 -58 10 -75 1 -20 7 -4 17 48 8 42 17 77 21 77 4 0 5
-8 3 -17z m1656 13 c0 -2 -8 -10 -17 -17 -16 -13 -17 -12 -4 4 13 16 21 21 21
13z m1480 -38 c0 -14 -39 -28 -78 -28 -32 0 -41 4 -45 21 -5 19 -2 20 59 17
35 -1 64 -6 64 -10z m-805 -59 c4 7 2 17 -4 24 -14 18 35 15 52 -3 10 -10 9
-11 -2 -5 -9 5 -12 4 -8 -3 9 -14 -3 -43 -14 -36 -6 3 -7 15 -3 27 8 26 1 21
-16 -12 -8 -15 -8 -21 -1 -17 6 4 11 5 11 2 0 -3 -4 -7 -9 -10 -5 -3 -18 10
-30 30 -26 44 -28 59 -2 21 12 -19 21 -25 26 -18z m-54 -55 c19 -31 33 -61 31
-66 -1 -5 2 -7 7 -3 6 3 15 -3 20 -14 6 -11 17 -25 24 -33 8 -7 76 -108 151
-223 76 -116 151 -229 167 -253 16 -23 29 -47 29 -52 0 -15 -82 -72 -90 -63
-4 5 -44 64 -88 133 -153 235 -227 343 -261 379 -23 25 -29 28 -19 11 8 -14
59 -101 113 -195 54 -93 125 -212 157 -263 33 -52 57 -97 53 -100 -12 -13
-189 -7 -228 7 -50 17 -103 64 -128 114 l-21 39 40 -31 c35 -29 198 -99 190
-83 -11 24 -260 514 -300 590 -40 77 -47 97 -36 109 10 13 13 12 20 -6 7 -20
38 -30 38 -12 0 16 52 23 61 9 6 -8 9 -9 9 -2 0 7 7 11 16 10 9 0 19 6 22 14
5 13 3 13 -11 1 -14 -11 -17 -11 -17 0 0 11 -2 11 -10 -1 -5 -8 -10 -11 -10
-6 0 8 29 46 35 46 2 0 18 -25 36 -56z m115 47 c-3 -5 0 -11 7 -14 19 -7 347
-506 347 -528 0 -5 7 -12 15 -15 19 -8 20 -67 2 -83 -8 -6 -17 -8 -21 -4 -4 4
-4 0 0 -10 5 -13 2 -16 -10 -11 -18 7 -102 124 -89 124 4 0 3 4 -3 8 -21 14
-111 148 -174 257 -35 61 -69 117 -75 125 -6 8 -18 31 -25 50 -8 19 -18 38
-22 41 -16 10 3 38 23 34 11 -2 17 0 14 6 -6 9 2 29 11 29 3 0 3 -4 0 -9z
m-666 -35 c0 -2 -8 -10 -17 -17 -16 -13 -17 -12 -4 4 13 16 21 21 21 13z
m-3347 -191 c-7 -21 -13 -19 -13 6 0 11 4 18 10 14 5 -3 7 -12 3 -20z m34 -47
c-3 -8 -6 -5 -6 6 -1 11 2 17 5 13 3 -3 4 -12 1 -19z m1874 -305 c13 -16 12
-17 -3 -4 -10 7 -18 15 -18 17 0 8 8 3 21 -13z m-2131 -79 c0 -55 -4 -71 -26
-100 -14 -18 -31 -31 -37 -27 -6 3 -7 1 -3 -5 4 -7 -16 -42 -45 -79 -66 -85
-146 -253 -193 -403 -36 -116 -116 -437 -116 -466 0 -8 -4 -12 -10 -9 -6 4 -7
-6 -4 -25 4 -17 2 -30 -3 -30 -6 0 -8 -12 -5 -26 3 -15 1 -24 -4 -21 -5 3 -10
-15 -11 -40 -1 -25 -5 -49 -10 -52 -4 -3 -9 -21 -10 -40 -1 -18 -7 -39 -14
-47 -6 -7 -8 -18 -4 -24 3 -5 -1 -10 -9 -10 -9 0 -16 -4 -16 -10 0 -5 5 -10
10 -10 6 0 10 -7 10 -16 0 -14 -3 -14 -15 -4 -14 11 -14 10 -5 -15 8 -21 8
-30 -1 -36 -6 -4 -8 -12 -5 -18 4 -6 4 -16 0 -23 -4 -7 -8 -21 -9 -32 -3 -38
-87 -341 -97 -354 -6 -7 -9 -15 -6 -18 16 -15 -120 -374 -197 -518 -75 -142
-80 -150 -94 -162 -13 -10 -13 -14 2 -29 10 -9 15 -21 12 -26 -7 -10 19 -70
47 -111 11 -16 16 -28 12 -28 -4 0 -1 -6 8 -12 8 -7 47 -58 87 -113 39 -55
108 -148 154 -206 45 -59 109 -142 143 -185 34 -44 116 -132 183 -196 167
-162 134 -154 -74 17 -117 96 -252 236 -372 385 -92 114 -274 383 -317 467
l-26 52 36 78 c162 345 231 526 304 790 50 178 67 257 140 624 93 469 130 599
220 779 76 151 176 277 284 357 80 59 86 57 86 -23z m1071 -236 c26 -50 64
-177 123 -408 46 -179 59 -185 31 -13 -14 89 -12 129 6 117 12 -7 11 5 -6 61
-8 27 -13 50 -12 52 8 7 57 -69 51 -80 -4 -6 -4 -9 1 -5 9 9 73 -72 114 -143
16 -30 42 -101 57 -159 14 -58 27 -106 28 -107 1 -1 0 53 -2 120 -2 67 -2 119
2 116 3 -3 12 -72 20 -153 8 -81 16 -150 19 -153 3 -2 9 22 12 54 16 128 72
303 114 351 33 38 38 25 19 -50 -10 -40 -17 -80 -15 -88 2 -8 10 7 17 34 11
42 14 46 21 28 5 -12 4 -47 -1 -79 -6 -32 -10 -67 -10 -78 1 -20 1 -20 15 -1
8 11 15 26 15 34 0 27 42 132 51 126 5 -3 6 1 4 9 -3 7 3 21 13 30 18 16 18
12 -4 -62 -36 -123 -48 -239 -40 -386 4 -71 13 -159 21 -195 18 -80 18 -83 4
-74 -7 4 -9 0 -5 -12 3 -11 14 -57 25 -104 20 -85 71 -224 90 -243 7 -7 8 -3
4 11 -2 11 -1 28 5 38 9 16 10 15 17 -5 5 -18 13 -22 38 -20 76 5 93 -13 78
-82 -8 -33 -6 -51 6 -78 13 -31 16 -33 22 -17 6 17 9 15 20 -12 8 -18 17 -32
21 -32 4 0 12 18 19 40 6 22 15 41 19 41 32 6 52 5 52 -3 0 -5 4 -7 9 -3 17
10 28 -26 35 -108 3 -43 11 -86 17 -95 8 -13 9 -10 5 16 -7 39 10 43 19 4 3
-15 17 -46 31 -67 14 -22 23 -31 19 -20 -4 11 -8 43 -11 70 -2 30 -1 41 4 27
7 -23 8 -23 23 -5 9 10 19 26 22 36 13 37 84 4 89 -42 0 -9 2 -23 2 -31 1 -8
7 -14 14 -13 6 2 9 -4 5 -13 -3 -9 -2 -19 3 -23 5 -3 22 -23 38 -45 l29 -38
13 31 c15 35 63 61 113 61 33 0 50 -22 45 -55 -8 -52 -13 -118 -6 -90 11 45
34 37 51 -17 15 -49 33 -67 26 -26 -3 13 -3 30 0 39 6 19 52 42 67 33 6 -4 8
-2 5 3 -4 6 17 17 50 27 56 15 58 15 80 -6 27 -25 30 -64 6 -98 -12 -19 -7
-16 20 9 20 19 38 33 39 30 34 -54 42 -92 26 -124 -6 -11 14 6 44 38 56 59 66
64 98 47 22 -12 70 -89 70 -113 0 -14 5 -13 38 5 49 28 47 27 34 40 -7 7 -12
19 -12 28 0 11 2 12 9 2 4 -7 28 -14 53 -16 38 -2 45 0 40 13 -5 13 -4 14 10
1 8 -8 13 -21 11 -27 -3 -7 1 -13 8 -13 8 -1 -3 -10 -23 -21 -37 -19 -52 -34
-24 -23 7 3 16 -2 20 -12 4 -11 2 -15 -8 -11 -10 4 -13 1 -9 -9 3 -8 -5 -23
-18 -34 -21 -18 -22 -19 -4 -14 40 12 151 58 175 73 23 15 24 15 11 -2 -12
-15 -12 -17 3 -11 44 17 -1 -37 -62 -74 -30 -17 -31 -20 -12 -25 11 -3 18 -2
15 2 -2 4 12 16 32 25 27 13 34 14 27 4 -5 -8 -1 -5 9 5 9 11 17 16 17 13 0
-4 9 -2 21 4 44 24 -2 -30 -64 -76 -34 -24 -75 -56 -92 -69 -28 -24 -28 -25
-7 -25 26 0 28 -9 7 -36 -8 -10 -15 -35 -15 -54 0 -48 -7 -54 -67 -68 -28 -6
-129 -40 -225 -76 -258 -96 -357 -106 -502 -52 -113 43 -197 108 -420 326
-435 425 -633 569 -881 640 -144 42 -199 76 -241 152 l-29 53 0 345 c0 190 -4
359 -8 375 -6 20 -5 25 1 15 8 -13 42 -130 55 -195 3 -11 5 4 6 33 1 58 -23
188 -44 240 -23 54 -7 36 26 -30 48 -94 60 -187 57 -437 -3 -234 3 -276 49
-343 31 -46 108 -100 190 -133 35 -14 85 -39 112 -55 26 -17 56 -30 66 -30 10
0 15 -3 12 -7 -4 -4 12 -18 36 -32 24 -14 60 -39 80 -55 29 -22 40 -26 51 -17
11 9 15 9 18 0 2 -7 8 -6 16 4 11 12 10 15 -5 13 -10 0 -17 5 -15 12 1 8 -2
11 -8 7 -5 -3 -10 0 -10 7 0 7 -16 24 -36 38 -19 14 -60 45 -92 70 -32 25 -78
59 -102 75 -25 17 -54 38 -64 48 -11 9 -24 17 -28 17 -5 0 -26 28 -48 62 -22
33 -40 58 -40 53 0 -4 -7 -2 -15 5 -18 15 -36 79 -70 240 -15 69 -35 151 -45
182 -12 37 -21 103 -25 185 -12 261 -40 429 -110 678 -25 88 -45 163 -45 168
0 17 11 5 31 -35z m1166 -234 c-2 -3 -17 -7 -33 -10 -17 -2 -24 -1 -17 4 13 8
58 14 50 6z m-1636 -148 c21 -9 56 -15 77 -14 22 0 44 -2 50 -6 6 -4 21 -2 32
4 11 6 20 8 20 6 0 -9 -63 -39 -100 -47 -55 -13 -107 7 -166 63 -44 41 -53 55
-48 74 4 17 1 26 -10 30 -9 3 -13 10 -11 15 3 5 31 -18 61 -50 31 -33 73 -66
95 -75z m-146 93 c11 -17 -1 -21 -15 -4 -8 9 -8 15 -2 15 6 0 14 -5 17 -11z
m-443 -178 c5 -1 16 -24 23 -51 1 -3 4 -12 7 -20 16 -41 36 -144 31 -158 -4
-10 -2 -13 5 -8 7 4 15 -8 22 -33 5 -21 22 -65 35 -96 14 -31 27 -64 29 -73 1
-9 8 -30 15 -46 6 -15 11 -33 10 -40 -1 -6 1 -19 6 -29 4 -9 5 -26 2 -37 -3
-11 0 -20 5 -20 7 0 8 -15 4 -39 -3 -22 -2 -42 3 -45 9 -6 11 -32 14 -178 1
-36 5 -64 8 -62 4 2 10 -69 13 -159 9 -240 25 -585 37 -812 6 -110 13 -247 14
-305 4 -103 16 -328 36 -625 5 -82 14 -215 19 -295 6 -80 7 -153 4 -162 -3
-10 0 -18 6 -18 8 0 11 -16 8 -49 -1 -27 0 -47 4 -45 4 3 8 -8 8 -23 3 -88 9
-153 14 -162 4 -6 4 -29 1 -52 -4 -28 -3 -39 5 -34 7 4 10 -5 8 -29 -1 -19 1
-38 5 -42 4 -4 2 -13 -4 -21 -9 -9 -8 -13 0 -13 6 0 11 -5 11 -10 0 -6 -29 10
-65 35 -36 25 -69 45 -74 45 -12 0 -35 29 -28 36 6 6 53 -26 94 -63 21 -19 53
-22 53 -6 0 3 -6 3 -13 0 -16 -6 -41 12 -50 36 -3 9 -15 17 -26 17 -11 0 -23
4 -26 10 -3 5 -15 15 -27 21 -13 7 -18 7 -14 1 3 -6 2 -13 -4 -17 -5 -3 -10
-1 -10 4 0 6 -5 11 -11 11 -20 0 -70 42 -65 55 5 14 -12 35 -28 35 -6 0 -4 -5
4 -11 12 -8 11 -9 -5 -6 -11 2 -19 9 -17 16 1 7 -2 10 -8 6 -6 -4 -18 -1 -27
6 -8 7 -25 18 -37 24 -11 7 -20 17 -19 23 2 7 -1 11 -5 9 -9 -2 -49 24 -95 64
-28 24 -29 28 -22 77 4 29 10 52 13 52 4 0 7 10 8 23 0 12 4 36 8 52 4 18 -4
8 -19 -25 -14 -30 -33 -62 -42 -72 -9 -10 -13 -18 -8 -18 4 0 2 -7 -5 -15 -15
-18 -31 -10 -23 10 3 11 1 13 -10 10 -8 -4 -27 5 -42 18 l-28 23 36 95 c20 52
41 113 48 137 7 23 18 42 25 42 7 0 11 6 8 13 -7 18 13 67 38 94 12 13 44 27
75 34 54 12 54 13 26 24 -15 7 -31 10 -35 8 -4 -2 -5 2 -2 10 4 11 -1 13 -20
10 -14 -3 -26 -10 -26 -15 0 -5 -7 -2 -16 6 -8 9 -20 14 -25 10 -14 -9 -222
202 -214 217 5 7 4 10 -2 6 -6 -4 -27 11 -46 32 -43 47 -59 76 -49 86 4 5 2 5
-4 2 -15 -8 -108 99 -99 113 4 6 2 9 -3 8 -6 -2 -27 19 -48 46 -20 27 -33 46
-27 43 17 -11 6 44 -13 62 -15 15 -15 14 0 -10 9 -14 13 -29 9 -32 -8 -9 -44
44 -37 55 3 4 0 8 -6 8 -7 0 -10 7 -6 15 3 8 1 15 -4 15 -6 0 -10 7 -10 15 0
21 4 20 95 -20 53 -23 80 -40 79 -50 -2 -12 1 -13 12 -4 8 7 14 7 14 1 0 -5 9
-12 20 -15 23 -6 24 -4 10 21 -37 66 -112 281 -103 296 3 6 3 8 -2 4 -7 -7
-46 62 -50 87 0 6 -6 9 -13 7 -7 -1 -15 4 -18 12 -3 8 -12 12 -20 9 -20 -8
-18 3 20 98 19 46 40 103 46 126 7 23 16 41 19 39 3 -2 6 8 7 23 0 14 8 42 16
61 8 19 20 53 25 75 6 22 35 132 66 245 30 113 68 257 83 320 15 63 31 117 36
118 4 2 6 7 3 12 -6 9 8 65 49 200 46 155 56 185 76 227 11 24 20 48 20 53 0
6 5 8 12 4 6 -4 8 -3 5 4 -4 5 -4 18 -1 27 5 13 8 14 15 3 5 -8 8 -2 6 17 -1
23 2 30 15 30 10 0 18 4 18 8 0 29 -1 31 -10 17 -5 -8 -10 -10 -10 -5 1 18 39
56 61 60 11 2 28 -3 36 -11 9 -8 18 -12 22 -8 3 4 0 9 -8 12 -11 4 -11 6 0 13
9 6 2 8 -19 5 -21 -2 -31 0 -29 8 3 6 10 10 16 9 6 -2 10 0 10 5 -3 20 7 22
63 13z m2460 -18 c24 -21 43 -82 30 -95 -13 -13 -62 -2 -62 14 0 19 -32 48
-54 49 -12 0 -15 3 -8 6 6 2 9 10 6 15 -10 16 27 39 50 32 12 -4 29 -13 38
-21z m-264 -241 c-12 -60 -31 -68 -47 -19 -11 33 -5 73 19 118 l13 24 12 -36
c10 -26 10 -49 3 -87z m192 73 c4 3 13 -2 20 -10 7 -8 18 -15 25 -15 17 0 25
-23 26 -78 0 -36 3 -42 9 -27 7 16 9 14 9 -15 1 -27 -2 -32 -10 -20 -8 11 -9
7 -5 -17 3 -18 1 -35 -4 -38 -6 -4 -11 17 -12 52 -1 35 -3 44 -5 23 -8 -79
-14 -104 -24 -89 -6 10 -9 10 -9 2 0 -21 -27 -14 -48 12 -11 13 -21 22 -24 20
-3 -3 -5 1 -5 8 0 6 -4 34 -8 61 -6 35 -5 47 4 42 7 -4 9 -2 5 8 -3 8 5 34 17
56 13 23 25 37 27 31 2 -6 7 -9 12 -6z m283 -63 c20 4 26 -1 37 -31 13 -36 20
-92 19 -166 0 -26 -6 -45 -19 -57 -24 -23 -31 -23 -23 -1 7 17 6 17 -20 0 -15
-9 -27 -15 -27 -11 0 4 -8 0 -17 -7 -10 -7 -15 -9 -10 -4 10 12 -22 45 -38 39
-23 -9 -38 34 -30 90 6 53 46 145 59 136 4 -3 12 3 18 14 8 14 12 15 18 6 4
-7 19 -11 33 -8z m-3383 -22 c0 -12 -15 -24 -72 -60 -29 -18 -68 -58 -104
-107 -146 -198 -223 -299 -242 -316 l-21 -19 21 69 c27 90 119 275 164 330 38
46 88 82 139 101 38 13 115 15 115 2z m3669 -38 c8 -1 11 -5 8 -8 -4 -4 2 -14
12 -23 13 -12 18 -31 19 -71 0 -30 4 -64 8 -74 6 -15 4 -17 -6 -11 -10 6 -11
2 -7 -17 5 -18 1 -33 -13 -49 -13 -16 -19 -19 -20 -10 0 10 -7 8 -25 -9 -25
-23 -25 -23 -65 -5 -23 10 -45 26 -51 36 -22 42 -2 139 45 209 23 35 33 38 95
32z m306 -22 c31 -26 58 -94 63 -161 4 -57 1 -73 -19 -108 -24 -43 -39 -52
-39 -24 0 12 -6 9 -24 -12 -23 -27 -27 -28 -61 -18 -20 7 -43 9 -50 7 -7 -3
-15 2 -19 12 -5 14 -4 15 9 4 9 -8 15 -8 15 -2 0 6 -4 14 -10 17 -5 3 -10 15
-10 26 0 11 -4 18 -9 14 -30 -18 -22 93 11 160 45 89 99 122 143 85z m283 4
c27 -13 35 -27 53 -86 19 -62 20 -78 11 -135 -12 -71 -29 -104 -68 -130 -22
-14 -29 -14 -46 -4 -14 9 -23 10 -31 2 -7 -7 -15 -7 -26 2 -12 10 -13 9 -7 -3
4 -8 -4 -3 -18 13 -33 36 -41 84 -26 160 13 72 47 134 91 171 36 31 29 30 67
10z m-2762 -34 c-22 -26 -24 -34 -14 -55 7 -16 17 -24 27 -21 9 2 34 7 55 11
36 6 39 5 26 -10 -7 -9 -27 -23 -44 -32 -17 -9 -35 -22 -39 -29 -4 -8 -13 -14
-20 -14 -7 0 -6 4 3 10 8 5 10 10 4 10 -18 0 -24 -13 -13 -27 9 -9 8 -13 0
-13 -15 0 -37 -59 -40 -108 -1 -7 -5 -11 -10 -8 -4 3 -5 -13 0 -37 4 -23 6
-43 4 -45 -6 -6 -44 123 -59 202 -31 156 -17 190 74 179 30 -3 50 -1 54 6 4 6
10 11 12 11 3 0 -6 -14 -20 -30z m2994 0 c4 0 22 -14 39 -32 23 -23 31 -41 31
-67 0 -28 3 -33 11 -21 8 11 9 7 4 -17 -4 -21 -3 -33 4 -33 6 0 11 -10 11 -22
0 -19 -2 -20 -11 -8 -8 12 -9 10 -4 -7 7 -25 -18 -85 -43 -105 -13 -11 -15
-10 -9 5 4 9 10 25 13 35 4 9 -9 -1 -29 -22 -34 -38 -37 -39 -61 -26 -15 7
-26 18 -26 24 0 6 -4 5 -9 -3 -24 -38 -65 49 -55 116 9 61 49 161 75 189 19
20 23 21 36 8 8 -7 18 -14 23 -14z m189 9 c11 17 58 -76 66 -129 8 -52 -16
-124 -45 -140 -30 -16 -45 64 -40 225 1 33 4 54 7 46 4 -9 7 -10 12 -2z
m-5099 -168 c0 -26 -51 -78 -102 -103 -97 -48 -387 -132 -402 -117 -3 2 -6 22
-8 43 l-3 39 250 73 c277 80 265 77 265 65z m2337 -63 c-3 -8 -6 -5 -6 6 -1
11 2 17 5 13 3 -3 4 -12 1 -19z m3028 -120 c90 -13 175 -57 175 -89 0 -20 111
-56 193 -63 64 -5 134 -28 185 -62 22 -14 22 -17 8 -39 -28 -42 -21 -62 27
-77 23 -7 42 -19 42 -26 0 -16 82 -72 107 -72 10 0 18 -4 18 -9 0 -8 79 -31
163 -48 15 -3 27 -9 27 -14 0 -5 16 -8 35 -6 25 3 35 0 35 -9 0 -8 9 -14 19
-14 11 0 23 -4 26 -10 3 -5 11 -10 16 -10 6 0 7 5 4 10 -3 6 1 10 9 10 9 0 16
-4 16 -9 0 -4 80 -8 178 -7 l177 1 145 -43 c80 -24 167 -53 194 -65 l48 -20
-33 -11 c-23 -8 -35 -19 -39 -36 -3 -14 -14 -26 -24 -28 -10 -2 -29 -15 -41
-29 -18 -22 -31 -26 -76 -27 -34 -1 -65 -8 -82 -19 -32 -21 -38 -21 -31 -2 4
9 0 15 -9 15 -10 0 -15 -7 -12 -20 2 -12 -2 -20 -10 -20 -10 0 -12 6 -8 18 5
14 4 15 -8 6 -19 -15 -79 -28 -79 -17 0 5 -9 9 -20 10 -11 1 -20 -3 -20 -8 0
-17 -64 -49 -99 -49 -40 0 -117 35 -133 59 -7 11 -20 16 -37 13 -15 -2 -54 6
-86 18 -120 44 -122 44 -165 30 -32 -10 -42 -11 -55 0 -13 10 -15 9 -15 -8 0
-32 -33 -36 -87 -9 -26 14 -64 28 -83 32 -44 9 -110 42 -110 55 0 13 -139 56
-168 52 -29 -4 -92 16 -92 29 0 5 -13 9 -28 9 -20 0 -44 15 -83 50 -62 57
-107 74 -178 64 -43 -6 -50 -4 -55 14 -11 34 -34 45 -90 43 -44 -2 -63 4 -117
35 -71 40 -229 108 -288 124 -21 6 -81 16 -132 24 -83 13 -106 21 -194 71 -99
55 -141 86 -100 71 11 -4 63 -17 115 -28 52 -11 138 -40 190 -64 88 -39 218
-75 272 -74 33 1 -36 25 -117 41 -35 7 -62 16 -59 21 3 4 -2 5 -10 2 -16 -6
-146 53 -146 67 0 5 -6 9 -14 9 -8 0 -18 4 -21 10 -4 7 3 7 20 0 36 -14 108
-13 123 2 7 7 56 13 129 14 115 3 244 23 284 45 11 5 30 7 42 4 17 -5 19 -4 7
4 -8 6 -12 11 -8 11 3 0 14 3 24 7 13 5 15 3 9 -8 -4 -8 -5 -11 -1 -7 4 3 8 9
7 12 0 2 12 18 27 34 29 32 23 32 167 10z m-3558 -57 c53 -54 96 -71 182 -71
44 0 52 -3 47 -16 -3 -9 -6 -23 -6 -32 0 -15 -2 -15 -10 -2 -7 11 -10 12 -10
2 0 -8 -7 -11 -17 -8 -23 7 -126 -51 -117 -66 4 -7 3 -8 -4 -4 -13 8 -57 -12
-48 -21 3 -4 -4 -11 -16 -17 -27 -14 -55 -64 -72 -128 l-12 -50 -12 69 c-12
71 -37 240 -46 306 -4 32 -1 43 19 63 37 37 67 31 122 -25z m1327 13 l38 -26
-26 -17 c-14 -10 -23 -21 -19 -24 3 -4 0 -7 -8 -7 -8 0 -22 -9 -32 -20 -24
-28 -41 -15 -32 24 3 17 7 41 8 53 1 11 5 19 10 16 4 -2 7 3 7 11 0 22 9 20
54 -10z m951 3 c-91 -21 -113 -51 -89 -121 17 -50 35 -68 81 -84 l33 -11 -15
29 c-14 27 -13 29 5 35 11 3 25 3 31 -1 8 -5 8 -1 0 14 -9 17 -7 21 13 26 32
8 52 0 103 -41 24 -19 51 -32 65 -31 18 1 111 -54 138 -82 3 -3 26 -6 52 -8
26 -1 60 -7 75 -13 15 -6 43 -13 62 -15 19 -3 55 -13 79 -24 25 -11 52 -20 61
-20 9 0 45 -14 81 -32 36 -17 70 -32 75 -32 19 -2 59 -29 94 -63 45 -44 75
-51 117 -28 32 17 35 17 53 1 11 -10 17 -25 14 -34 -5 -12 -1 -14 25 -9 35 7
111 -16 188 -57 27 -14 60 -26 74 -26 47 -1 155 -46 222 -95 37 -27 66 -50 65
-52 -2 -1 -30 2 -61 8 -32 6 -61 8 -64 4 -22 -22 88 -81 135 -72 13 2 23 0 23
-6 0 -5 7 -4 15 3 8 7 29 10 52 6 21 -3 39 -5 41 -6 2 0 0 -5 -4 -12 -4 -6 -3
-8 4 -5 16 10 39 -2 45 -24 6 -22 -13 -25 -44 -9 -11 6 -63 15 -117 20 -131
12 -260 50 -351 106 -58 34 -90 47 -143 54 -86 12 -154 27 -193 42 -64 24
-223 106 -272 140 -29 20 -68 39 -85 43 -18 4 -70 22 -114 41 -67 27 -96 33
-165 35 -46 1 -88 5 -94 9 -5 4 -28 10 -50 13 -115 14 -150 30 -182 84 -26 45
-54 63 -97 63 -18 0 -30 13 -54 58 -54 103 -51 150 11 177 18 8 50 14 72 14
l40 -1 -50 -11z m2839 -22 c101 -38 181 -54 319 -65 67 -5 132 -13 145 -16 22
-6 52 -50 52 -76 0 -16 -65 -115 -103 -158 -26 -29 -30 -30 -41 -14 -7 9 -17
14 -22 11 -6 -3 -16 -1 -24 5 -12 8 -11 9 4 4 15 -5 16 -4 8 7 -8 10 -7 21 7
43 l18 29 -106 1 c-82 1 -129 7 -208 28 -56 15 -107 25 -113 21 -5 -3 -10 0
-10 7 0 7 -15 -10 -33 -37 -52 -80 -75 -63 -48 34 7 25 11 57 9 73 -5 31 -2
33 39 18 25 -10 24 -7 -12 22 -84 70 -88 75 -80 88 12 19 117 6 199 -25z
m-232 -41 c27 -14 30 -19 25 -50 -3 -18 -20 -54 -37 -79 -26 -38 -35 -44 -57
-41 -14 3 -39 -2 -54 -10 -16 -8 -71 -19 -121 -23 -75 -7 -94 -6 -103 5 -10
14 -178 64 -218 64 -19 1 -20 2 -5 11 19 11 237 43 245 36 7 -8 140 31 182 53
21 10 43 26 50 34 17 20 54 20 93 0z m-3379 -54 c26 -16 47 -35 47 -41 0 -6
-15 -25 -34 -43 -19 -17 -40 -44 -46 -60 -6 -16 -13 -26 -17 -22 -20 20 -23
196 -4 196 4 0 28 -13 54 -30z m-88 -11 c-9 -17 -19 -29 -22 -26 -5 5 25 57
33 57 3 0 -3 -14 -11 -31z m4410 -53 c39 -17 66 -62 85 -146 7 -30 34 -103 61
-161 27 -58 49 -109 49 -112 0 -14 -76 -7 -98 8 -12 9 -36 37 -53 63 -46 69
-50 71 -135 65 -83 -6 -88 -1 -48 46 41 49 15 36 -42 -20 -51 -51 -52 -51 -88
-39 -20 6 -36 14 -36 17 0 7 54 77 116 148 28 33 54 70 58 83 4 12 19 29 34
38 15 8 19 13 9 10 -11 -3 -15 -2 -12 4 9 14 60 12 100 -4z m-4119 -48 c35
-18 64 -38 64 -45 0 -22 -50 -94 -60 -88 -6 3 -10 -1 -10 -9 0 -19 -36 -22
-43 -3 -4 7 -6 6 -6 -5 -1 -15 -23 -19 -37 -6 -12 13 -22 78 -12 84 5 3 8 21
6 39 -1 19 2 38 6 42 5 5 6 2 1 -6 -6 -10 -4 -12 4 -7 7 5 10 14 7 22 -8 21
11 17 80 -18z m2719 -32 l70 -12 -78 -8 c-45 -4 -92 -3 -110 3 -18 5 -45 12
-62 16 -27 7 -28 8 -10 16 22 10 84 5 190 -15z m-2828 -18 c-3 -7 -5 -2 -5 12
0 14 2 19 5 13 2 -7 2 -19 0 -25z m339 -47 c65 -28 90 -44 92 -58 4 -29 -47
-106 -87 -133 l-35 -23 -23 29 c-13 16 -23 34 -23 39 0 6 -5 3 -10 -5 -8 -12
-10 -9 -10 12 0 32 -16 46 -24 21 -3 -10 -3 6 -1 35 3 42 23 122 30 122 1 0
42 -17 91 -39z m257 -78 c78 -23 104 -66 77 -128 -6 -14 -7 -4 -5 30 l4 50 -9
-42 c-11 -52 -37 -103 -52 -103 -6 0 -8 -3 -5 -7 4 -3 2 -12 -4 -20 -13 -15
-49 -18 -49 -3 0 6 -13 24 -30 42 -30 31 -39 25 -19 -15 9 -21 9 -21 -5 -4
-20 26 -31 96 -17 110 6 6 11 18 11 27 0 13 -2 13 -11 0 -14 -21 -1 25 18 63
10 21 19 27 31 22 9 -4 39 -14 65 -22z m3038 -50 c13 -15 12 -15 -11 -3 -34
17 -36 20 -18 20 9 0 22 -7 29 -17z m-5366 -30 c23 -42 85 -77 246 -140 58
-22 97 -43 95 -49 -5 -12 124 -64 159 -64 19 -1 19 -1 2 -11 -14 -8 -45 -8
-110 0 -332 42 -313 41 -368 20 -29 -10 -54 -21 -57 -24 -8 -8 -42 26 -42 42
0 7 -4 13 -8 13 -12 0 -42 -56 -42 -78 0 -12 -5 -24 -11 -28 -9 -5 -10 7 -4
42 4 27 9 65 11 84 5 56 14 112 20 121 8 13 -10 11 -23 -2 -12 -12 -16 -4 -28
58 -8 40 11 52 85 53 53 0 56 -1 75 -37z m1012 2 c0 -8 -4 -12 -9 -9 -5 3 -6
10 -3 15 9 13 12 11 12 -6z m1553 0 c8 -2 15 -4 15 -5 0 -1 7 -3 16 -5 43 -8
59 -18 59 -35 0 -37 -43 -134 -75 -168 -26 -29 -36 -34 -58 -28 -56 14 -80
135 -43 220 14 35 18 38 43 31 16 -4 35 -9 43 -10z m233 -51 c4 -1 12 -2 18
-3 6 0 9 -8 5 -16 -3 -8 0 -14 7 -12 8 1 13 -15 15 -46 5 -79 -58 -157 -74
-92 -3 14 -10 23 -15 20 -12 -8 -31 67 -19 79 6 6 10 22 10 36 0 30 18 52 34
42 6 -4 14 -7 19 -8z m-1593 -72 c-21 -7 -23 -6 -26 10 -2 14 1 15 17 5 11 -7
15 -13 9 -15z m1807 -64 c-3 -7 -5 -2 -5 12 0 14 2 19 5 13 2 -7 2 -19 0 -25z
m-2622 -8 c8 -13 -5 -13 -25 0 -13 8 -13 10 2 10 9 0 20 -4 23 -10z m2655 0
c0 -5 -2 -10 -4 -10 -3 0 -8 5 -11 10 -3 6 -1 10 4 10 6 0 11 -4 11 -10z
m3157 4 c12 -3 31 -23 41 -43 18 -34 18 -41 5 -79 -14 -43 -51 -112 -60 -112
-2 0 -1 5 3 12 4 7 3 8 -5 4 -6 -4 -9 -11 -6 -16 3 -4 2 -15 -1 -23 -5 -14 -8
-13 -25 1 -23 20 -24 34 -4 72 l15 30 -34 -17 c-19 -9 -33 -19 -31 -23 3 -4
-7 -6 -20 -4 -14 1 -23 -2 -19 -7 6 -10 -8 -11 -171 -9 -119 1 -232 16 -254
34 -8 6 -5 -7 8 -32 20 -39 25 -121 7 -114 -3 1 -11 2 -17 2 -5 0 -7 4 -4 10
3 5 0 8 -7 5 -12 -5 -96 139 -112 191 -9 28 7 32 246 54 71 6 190 25 265 40
159 33 151 32 180 24z m-5236 -131 c90 -87 147 -154 118 -139 -7 4 -4 -1 8
-12 12 -11 19 -22 16 -26 -4 -3 0 -6 9 -6 8 0 23 -9 32 -19 17 -19 17 -19 -6
-17 -108 12 -220 86 -258 171 -24 52 -36 135 -21 135 7 0 53 -39 102 -87z
m5378 40 c2 33 20 17 47 -40 25 -52 27 -66 26 -179 0 -67 -6 -141 -13 -163
l-12 -39 -35 34 c-19 19 -39 34 -44 34 -4 0 -8 7 -8 15 0 8 -3 14 -7 14 -25
-4 -31 4 -29 41 1 43 2 43 -37 -11 -7 -9 -22 -19 -34 -23 l-22 -7 26 58 c14
32 45 92 69 133 23 41 46 93 50 115 6 32 9 36 15 20 6 -17 8 -17 8 -2z m-1686
-54 c45 -18 88 -36 95 -42 6 -5 12 -7 12 -3 0 3 24 -6 53 -21 69 -36 165 -38
250 -5 59 22 187 31 187 13 0 -5 10 -7 23 -4 20 5 19 2 -8 -21 -16 -14 -36
-23 -43 -21 -8 3 -26 -4 -42 -15 -15 -11 -36 -20 -47 -21 -10 0 1 -7 24 -16
42 -14 42 -15 26 -39 -9 -14 -37 -40 -62 -57 -43 -30 -52 -32 -131 -32 -93 0
-166 19 -231 61 -33 21 -42 22 -60 12 -17 -10 -23 -10 -26 -1 -2 7 -13 23 -24
37 -18 22 -28 26 -76 26 -58 0 -68 14 -25 36 47 23 -20 33 -92 13 -41 -11 -56
-3 -56 32 0 13 15 18 63 24 34 4 80 7 102 6 30 -1 36 1 25 8 -8 6 -23 11 -32
11 -10 0 -18 3 -18 6 0 9 20 44 26 44 2 0 42 -14 87 -31z m-3873 -29 c0 -5 6
-7 14 -4 9 3 17 -3 21 -15 3 -12 24 -43 46 -71 22 -28 37 -55 34 -60 -3 -5 0
-12 6 -16 8 -5 9 -3 4 7 -8 12 -6 12 8 0 9 -7 14 -17 11 -23 -3 -5 7 -25 22
-45 15 -20 22 -33 16 -29 -17 11 -15 -5 5 -26 15 -17 15 -18 -2 -18 -32 0 1
-25 80 -61 41 -19 75 -39 75 -46 0 -16 -98 -27 -161 -19 -70 10 -155 43 -193
76 -34 31 -80 115 -91 168 -6 27 -4 32 12 32 10 0 31 -7 47 -15 35 -19 42 -19
27 -2 -6 8 -7 18 -3 22 4 5 0 4 -8 0 -13 -8 -13 -7 -1 8 9 12 12 32 8 63 -5
50 0 84 14 84 5 0 9 -4 9 -10z m2611 -310 c89 -173 205 -391 257 -485 52 -93
124 -223 159 -287 l65 -117 -36 -43 c-75 -87 -240 -219 -386 -308 -208 -127
-443 -219 -740 -290 -205 -50 -265 -67 -313 -92 -58 -29 -38 -33 42 -7 39 13
72 21 74 18 2 -2 7 -16 11 -32 6 -23 3 -29 -21 -38 -15 -5 -46 -8 -69 -6 -24
2 -41 0 -38 -5 8 -12 -10 -10 -23 3 -6 6 -19 9 -29 6 -14 -3 -13 -5 6 -6 21
-1 22 -3 10 -12 -13 -9 -12 -10 2 -5 10 3 20 1 23 -4 4 -6 -10 -10 -32 -10
-28 0 -34 3 -23 10 18 11 3 12 -25 1 -17 -7 -15 -9 15 -16 19 -4 47 -9 61 -10
15 -1 32 -6 39 -10 8 -5 11 -4 7 2 -4 6 2 13 13 16 11 3 18 1 15 -3 -3 -5 7
-3 22 5 66 31 64 32 115 -73 26 -53 82 -159 124 -235 l76 -137 -28 -38 c-57
-77 -212 -221 -301 -280 -51 -34 -95 -62 -99 -62 -4 0 35 44 87 97 53 54 117
130 144 168 27 39 58 80 69 93 19 21 19 23 2 40 -16 16 -17 16 -10 -2 5 -13 4
-17 -4 -12 -6 3 -14 1 -17 -4 -7 -12 -45 15 -45 32 0 5 -19 37 -42 71 -30 44
-44 57 -46 45 -2 -10 -7 -18 -12 -18 -4 0 -10 -7 -13 -14 -4 -10 -1 -13 9 -9
7 3 14 1 14 -5 0 -6 -6 -13 -12 -15 -8 -4 -7 -6 3 -6 33 -2 40 -75 11 -111
-15 -19 -24 -22 -48 -15 -16 5 -32 8 -35 7 -11 -2 8 69 24 86 7 9 18 24 22 32
8 13 6 13 -7 2 -9 -7 -18 -9 -20 -5 -3 4 -4 3 -2 -4 3 -14 -21 -48 -35 -48
-13 0 -14 -7 -6 -45 4 -17 13 -30 21 -30 9 0 12 -5 9 -10 -10 -16 37 -30 54
-16 12 9 12 8 4 -9 -14 -24 -59 -65 -74 -65 -5 0 -8 -4 -5 -9 7 -11 -17 -31
-62 -51 -24 -11 -32 -19 -24 -24 7 -4 12 -2 12 3 0 6 5 11 12 11 6 0 1 -11
-12 -25 -13 -14 -29 -25 -36 -25 -6 0 -18 -7 -25 -16 -23 -27 -89 -65 -101
-58 -7 4 -8 3 -4 -4 8 -13 -30 -36 -44 -27 -6 3 -10 1 -10 -4 0 -6 -5 -11 -11
-11 -5 0 -7 4 -4 10 3 5 2 10 -4 10 -5 0 -12 -9 -16 -19 -5 -17 -33 -36 -41
-29 -5 6 95 329 105 342 6 7 9 15 6 18 -6 6 32 117 51 145 13 20 13 23 0 23
-8 0 -18 -5 -21 -10 -4 -6 -10 -8 -15 -5 -5 3 -12 0 -16 -6 -4 -8 -3 -9 4 -5
7 4 12 1 12 -9 0 -10 -5 -13 -12 -9 -8 5 -9 2 -5 -9 3 -10 3 -17 -2 -17 -4 0
-16 -18 -26 -40 -10 -23 -22 -37 -26 -33 -9 10 51 245 64 254 5 4 7 11 4 16
-3 4 1 33 9 62 15 57 31 87 20 36 -5 -24 -4 -27 5 -12 6 10 7 31 4 49 -5 20
-4 28 3 24 6 -4 8 2 4 16 -3 13 -1 19 5 15 7 -5 9 0 6 13 -3 11 -2 28 2 37 5
10 7 24 6 31 -1 6 2 12 8 12 5 0 7 10 3 22 -3 13 -1 19 5 15 6 -4 13 2 16 13
3 11 1 18 -3 15 -4 -3 -3 11 3 30 6 19 13 35 16 35 3 0 7 15 8 34 2 46 62 188
75 179 6 -3 8 -1 5 4 -9 14 37 95 48 86 4 -5 6 -1 2 8 -3 9 3 25 13 36 9 11
21 29 24 41 4 12 12 22 17 22 5 0 8 3 8 8 -4 21 2 43 10 38 4 -3 11 15 15 41
3 26 14 56 24 66 9 11 11 17 3 12 -10 -6 -12 -3 -7 13 9 28 10 238 1 361 l-8
104 64 -8 c35 -4 69 -7 74 -6 6 0 39 5 75 10 36 6 74 8 85 5 14 -4 16 -3 7 4
-10 7 -5 11 19 16 18 3 37 2 43 -4 5 -5 15 -10 21 -10 5 0 2 6 -9 12 -17 9
-12 14 40 39 66 33 68 33 58 17 -4 -7 -3 -8 5 -4 6 4 9 11 7 15 -3 4 15 24 39
45 25 20 63 64 86 98 31 46 44 57 51 47 7 -12 8 -11 7 1 -1 8 1 22 4 30 4 8 8
51 9 95 3 72 4 77 15 53 7 -15 22 -47 33 -70 12 -24 54 -119 95 -213 40 -93
104 -235 141 -313 l68 -144 -34 -29 c-19 -16 -31 -29 -26 -29 5 0 2 -8 -5 -17
-13 -16 -12 -17 3 -4 10 7 16 16 14 20 -3 4 8 14 24 23 32 18 42 12 55 -30 5
-17 2 -28 -12 -38 -17 -14 -17 -14 4 -4 19 9 25 7 37 -12 7 -13 17 -33 21 -45
9 -31 25 -28 55 10 14 17 19 28 13 24 -7 -5 -13 -4 -13 2 0 6 6 11 13 11 9 0
9 2 -1 9 -8 4 -12 19 -11 32 2 13 0 30 -4 36 -6 9 -3 11 8 7 13 -6 14 -3 4 19
-7 15 -17 24 -22 20 -6 -4 -8 0 -4 10 3 9 0 18 -9 21 -9 3 -12 1 -9 -4 3 -6 1
-10 -5 -10 -23 0 -240 334 -240 371 0 9 -10 24 -21 35 -24 21 -60 94 -53 106
3 4 1 8 -4 8 -15 0 -32 46 -21 59 5 6 6 9 3 6 -7 -4 -34 19 -34 30 0 3 5 3 12
-1 7 -4 8 -3 4 5 -4 6 -13 8 -19 4 -7 -3 -3 4 8 17 17 20 18 23 3 17 -26 -9
-54 35 -38 60 10 17 11 17 6 -2 -3 -11 -1 -27 4 -35 8 -12 10 -10 10 8 0 13 4
21 9 18 5 -3 11 1 15 9 3 8 0 14 -6 12 -6 -1 -13 4 -16 12 -3 9 0 11 7 6 7 -4
2 13 -11 38 -13 25 -27 42 -32 39 -5 -3 -6 0 -2 6 4 6 0 25 -9 41 -8 17 -15
44 -15 61 0 31 20 123 25 118 2 -2 76 -145 166 -318z m979 264 c11 -33 7 -54
-10 -54 -11 0 -30 56 -30 88 0 20 3 22 14 12 8 -6 20 -27 26 -46z m1167 -113
c41 -105 51 -154 30 -146 -8 4 -23 22 -33 41 -15 28 -20 31 -25 17 -3 -10 -4
-35 -1 -55 4 -31 1 -38 -12 -38 -9 0 -16 -4 -16 -10 0 -5 5 -10 11 -10 5 0 7
-5 4 -10 -4 -6 -10 -8 -14 -5 -5 2 -6 -7 -3 -20 2 -14 0 -25 -6 -25 -6 0 -20
-21 -33 -46 -20 -43 -51 -80 -90 -112 -14 -11 -16 -9 -12 13 4 19 0 27 -21 36
-14 7 -26 16 -26 21 0 5 15 39 34 76 35 70 88 222 106 306 6 26 18 62 27 79
l15 31 16 -30 c9 -16 30 -67 49 -113z m-4800 57 c-3 -8 -6 -5 -6 6 -1 11 2 17
5 13 3 -3 4 -12 1 -19z m3683 -90 c8 -1 17 -4 20 -7 3 -4 18 -11 34 -16 34
-12 46 -35 19 -36 -16 0 -16 -1 2 -8 11 -5 30 -7 43 -4 32 5 20 -11 -23 -31
-35 -17 -36 -17 -75 14 -38 30 -80 80 -80 95 0 4 10 4 23 0 12 -3 29 -7 37 -7z
m-4491 -33 c31 -8 116 -35 187 -61 71 -25 135 -46 142 -46 24 -2 11 -18 -15
-19 -23 0 -19 -3 20 -16 26 -9 46 -17 44 -19 -8 -8 -257 26 -290 39 -20 9 -38
16 -40 16 -1 0 -21 3 -44 7 -30 4 -43 11 -43 23 0 11 -3 12 -8 4 -10 -16 -27
-3 -28 22 -1 11 -5 33 -9 49 -7 25 -6 28 9 23 9 -4 43 -13 75 -22z m-1138 -74
c38 -38 47 -68 33 -105 -10 -25 -71 -21 -97 7 -51 54 -66 80 -56 98 26 50 71
50 120 0z m1860 -38 c12 -21 36 -56 53 -78 17 -21 25 -35 17 -31 -10 6 -12 5
-7 -2 4 -7 13 -12 20 -12 8 0 20 -8 27 -17 12 -15 12 -16 -1 -8 -13 8 -13 7
-1 -9 20 -24 56 -43 46 -24 -3 7 0 5 8 -4 8 -10 19 -18 26 -18 6 0 11 -5 11
-11 0 -5 4 -8 9 -4 5 3 12 -3 15 -12 4 -10 29 -28 57 -41 69 -31 63 -42 -36
-68 -11 -3 -37 -5 -58 -5 -21 1 -50 -5 -65 -12 -15 -8 -36 -11 -47 -8 -19 6
-29 13 -102 75 -38 32 -83 113 -83 148 0 21 1 21 31 -8 l31 -29 -21 40 c-22
42 -27 65 -12 65 5 0 11 18 15 39 5 33 27 71 41 71 2 0 14 -17 26 -37z m3929
-6 c0 -6 12 -35 28 -62 26 -49 27 -54 24 -184 -2 -114 0 -143 18 -197 12 -35
26 -66 31 -70 5 -3 6 -10 3 -16 -4 -6 -2 -8 4 -4 6 3 13 2 17 -4 3 -5 1 -10
-4 -10 -6 0 -11 -6 -11 -14 0 -8 -5 -18 -12 -22 -7 -5 -8 -3 -3 6 5 9 2 10
-13 6 -29 -9 -66 17 -87 60 -14 30 -16 53 -10 138 8 119 -3 190 -46 286 -16
35 -27 70 -25 76 4 11 22 16 74 23 6 0 12 -5 12 -12z m1678 -7 c67 0 86 -38
137 -280 38 -179 66 -254 122 -327 34 -45 47 -96 33 -138 -16 -49 -31 -57
-124 -61 l-84 -5 -38 35 c-31 28 -34 34 -16 29 l22 -5 -20 43 c-27 60 -25 76
6 42 l25 -28 -15 32 c-18 36 -20 47 -7 39 15 -10 18 27 10 124 -8 96 -39 216
-53 203 -4 -4 -9 3 -13 16 -4 17 -8 20 -15 9 -6 -8 -8 6 -6 40 2 28 0 52 -4
52 -5 0 -8 -6 -8 -12 0 -7 -11 -26 -24 -43 l-25 -30 -9 24 c-6 17 -4 40 5 70
20 69 43 134 56 156 9 17 5 16 -24 -6 -19 -15 -51 -59 -74 -102 -44 -83 -47
-86 -195 -138 -36 -12 -73 -29 -82 -37 -16 -14 -18 -13 -18 3 0 17 -1 17 -20
0 -11 -10 -22 -25 -25 -35 -7 -23 -35 -21 -35 2 0 10 -4 26 -9 36 -49 101 -47
93 -23 112 12 10 55 31 95 46 39 15 121 51 181 81 107 54 217 82 241 61 5 -4
20 -8 33 -8z m-1028 0 c0 -21 -42 -94 -89 -154 -27 -33 -54 -72 -61 -85 l-13
-25 -17 35 c-9 19 -20 61 -24 94 -4 32 -9 69 -12 81 -5 19 -1 22 55 28 33 4
78 13 98 21 47 17 63 18 63 5z m-353 -112 c5 -7 17 -44 27 -83 9 -38 30 -98
46 -132 35 -71 37 -93 13 -122 -18 -22 -18 -22 -55 -2 l-38 19 6 -23 c14 -58
-85 -43 -121 18 -14 24 -19 50 -19 102 1 131 42 250 75 218 17 -17 29 -16 29
2 0 18 24 20 37 3z m-3512 -98 c-7 -11 -69 -24 -87 -17 -7 2 7 9 32 15 60 13
62 13 55 2z m3915 -4 c0 -10 -71 -59 -76 -53 -8 8 46 57 62 57 8 0 14 -2 14
-4z m-4661 -169 c31 -23 60 -41 64 -39 4 1 10 -5 14 -14 9 -23 89 -55 120 -48
17 5 24 3 19 -4 -3 -6 -2 -12 4 -14 5 -2 6 -9 1 -17 -15 -24 -120 -25 -182 -1
-59 22 -134 80 -128 98 2 6 21 -4 43 -24 63 -56 53 -39 -17 29 -70 68 -91 101
-100 162 l-7 40 57 -63 c31 -35 81 -82 112 -105z m5051 136 c25 -31 23 -69 -3
-67 -9 1 -17 0 -17 -2 0 -3 16 -36 35 -74 40 -80 44 -101 13 -74 -13 12 -18
13 -13 4 5 -8 -6 -3 -24 13 -18 15 -37 24 -42 21 -6 -3 -16 0 -24 6 -9 7 -15
8 -15 2 0 -5 6 -15 14 -21 7 -6 28 -44 47 -83 28 -62 33 -84 33 -147 0 -57 -3
-76 -17 -85 -9 -7 -14 -16 -11 -19 8 -7 -24 -54 -41 -61 -8 -3 -17 0 -21 6 -5
7 -2 8 6 3 9 -5 11 -4 6 4 -8 13 -28 2 -53 -29 -7 -8 -13 -11 -13 -6 0 5 -7 3
-15 -4 -30 -25 -14 4 19 34 42 38 56 76 29 76 -18 0 -19 14 -22 245 l-2 245
33 20 c45 27 72 25 98 -7z m-1023 -30 c-3 -10 -5 -4 -5 12 0 17 2 24 5 18 2
-7 2 -21 0 -30z m652 10 c-8 -10 -16 -20 -19 -23 -3 -3 -13 -17 -22 -31 -20
-32 -83 -73 -98 -64 -33 20 6 63 105 114 49 25 51 25 34 4z m-5246 -132 c67
-32 179 -77 249 -100 169 -56 237 -106 225 -167 -3 -20 0 -24 19 -24 13 0 24
-4 24 -10 0 -5 -6 -10 -14 -10 -8 0 -16 -5 -18 -11 -7 -20 -88 -17 -158 7
-217 73 -396 193 -449 300 -13 27 -33 60 -43 73 -27 36 -22 45 12 21 17 -12
85 -48 153 -79z m457 14 c13 -14 19 -25 14 -25 -8 1 -50 50 -41 50 2 0 14 -11
27 -25z m1036 -187 c-3 -19 -39 -78 -47 -78 -11 0 -85 -80 -79 -85 9 -9 -35
-32 -101 -54 -72 -24 -205 -38 -194 -22 3 6 -4 15 -16 21 -17 10 -20 9 -14 -2
3 -7 -5 0 -18 16 -16 18 -23 36 -19 49 3 13 1 18 -6 13 -7 -4 -10 -2 -7 7 13
33 68 50 189 58 130 8 183 21 261 62 58 31 54 30 51 15z m3482 -23 c7 -14 12
-52 13 -83 l1 -57 12 35 13 35 13 -55 c24 -101 51 -161 103 -222 29 -33 62
-74 75 -92 12 -17 27 -31 34 -31 6 0 12 -9 14 -20 3 -20 89 -105 107 -105 6 0
7 -3 4 -6 -3 -4 14 -29 38 -57 45 -52 125 -195 125 -225 0 -11 -10 -4 -30 20
-17 21 -44 47 -61 59 l-30 21 25 -36 c29 -43 42 -94 28 -108 -7 -7 -16 -1 -27
18 l-16 29 6 -35 c11 -69 -50 -130 -130 -130 -42 0 -67 9 -59 22 3 5 -2 8 -12
6 -13 -2 -18 2 -16 15 2 9 -2 17 -8 17 -6 0 -10 6 -8 13 1 6 -6 27 -15 45 -15
27 -21 31 -37 22 -17 -9 -20 -7 -26 15 -3 14 -12 25 -20 25 -8 0 -14 5 -14 11
0 5 -8 29 -19 52 -10 23 -24 74 -30 112 -14 80 -81 295 -92 295 -5 0 -6 6 -3
13 2 7 -2 29 -10 48 -10 23 -15 28 -16 15 0 -20 0 -20 -16 0 -8 10 -12 13 -8
5 5 -9 3 -12 -4 -7 -7 4 -12 14 -12 21 0 15 -30 35 -51 35 -7 0 -4 -7 7 -15
17 -14 16 -14 -13 0 -44 21 -89 81 -75 98 6 7 18 40 27 72 8 33 21 65 29 73
15 15 132 61 157 61 9 1 21 -10 27 -24z m-398 -91 c0 -10 5 -14 15 -10 12 4
14 0 9 -21 -5 -17 -3 -24 3 -20 6 4 14 -5 18 -21 11 -44 37 -94 77 -147 25
-33 36 -57 33 -73 -2 -12 0 -20 6 -17 5 4 7 11 4 16 -4 5 -4 9 -1 9 2 0 16
-21 30 -47 17 -30 23 -50 17 -56 -14 -14 16 -70 32 -61 9 5 9 4 0 -6 -8 -9 -9
-19 -2 -31 5 -10 10 -30 11 -45 2 -14 8 -29 15 -31 7 -3 13 -15 13 -27 0 -17
-2 -18 -10 -6 -13 19 -12 14 5 -108 8 -56 19 -112 25 -122 6 -11 8 -25 5 -30
-4 -6 1 -13 10 -16 9 -4 14 -13 11 -20 -3 -7 0 -16 6 -20 7 -5 8 -2 3 7 -8 12
-6 12 8 0 18 -14 23 -26 8 -17 -5 3 -11 -1 -15 -9 -3 -8 0 -15 7 -15 7 0 19
-4 27 -10 12 -7 12 -13 1 -33 -12 -23 -16 -24 -45 -15 -81 28 -97 65 -101 246
-4 230 -43 334 -190 511 -47 57 -92 116 -100 132 -15 29 -20 85 -9 113 9 22
74 22 74 0z m-2605 -31 c-9 -53 -41 -172 -56 -208 -7 -16 -13 -32 -13 -35 -8
-34 -114 -184 -185 -262 -55 -60 -61 -91 -13 -61 15 10 30 22 34 28 5 6 8 5 8
-3 0 -19 -105 -115 -182 -168 -73 -49 -179 -96 -269 -119 -45 -12 -82 -13
-190 -6 -292 20 -472 84 -744 266 -159 107 -256 188 -381 317 -106 112 -154
182 -154 228 0 20 6 16 42 -26 213 -247 466 -446 680 -535 154 -64 271 -90
425 -96 201 -8 288 10 469 99 126 61 253 162 334 265 61 78 149 239 171 313
15 51 32 52 24 3z m2766 -20 c-12 -20 -14 -14 -5 12 4 9 9 14 11 11 3 -2 0
-13 -6 -23z m723 -65 c-15 -28 -38 -48 -52 -48 -11 0 -7 9 13 30 29 30 52 41
39 18z m658 -78 c15 0 28 -4 28 -8 0 -5 20 -18 44 -30 43 -22 82 -24 159 -7
15 3 27 2 27 -1 0 -4 -14 -32 -32 -63 l-31 -56 28 25 27 25 -7 -25 c-4 -14
-29 -68 -55 -120 -53 -107 -117 -295 -150 -445 -12 -55 -29 -126 -39 -157 -16
-54 -16 -57 0 -61 37 -10 -9 -114 -67 -152 -15 -9 -24 -12 -20 -7 3 6 -7 4
-23 -4 -26 -13 -34 -13 -63 -1 -19 8 -47 28 -64 45 -57 56 -83 265 -38 303 12
10 13 9 8 -5 -4 -11 -1 -16 13 -16 16 0 18 -7 16 -42 l-2 -43 9 45 c4 25 15
64 23 87 9 22 12 45 9 49 -4 4 -2 4 4 1 10 -6 41 59 36 76 -1 4 2 7 7 7 12 0
32 60 24 73 -3 6 -1 7 6 3 9 -6 11 2 10 26 -4 58 1 99 11 93 6 -3 10 3 10 14
0 11 7 27 16 35 8 9 21 44 28 78 8 35 18 62 24 61 19 -4 34 36 26 70 -3 18
-17 53 -30 79 -27 53 -32 80 -12 60 7 -7 25 -12 40 -12z m-5777 -16 c22 -9 49
-13 65 -9 68 15 156 -35 225 -128 52 -71 56 -87 18 -87 -22 0 -25 -2 -13 -10
8 -5 11 -10 5 -11 -38 -5 -54 -2 -83 14 -18 9 -38 14 -44 11 -6 -4 -8 -2 -4 4
3 6 -4 14 -16 17 -13 4 -36 19 -52 34 -16 14 -25 20 -21 12 5 -8 -8 -2 -28 13
-20 16 -35 32 -32 36 3 5 0 12 -6 16 -8 4 -9 3 -5 -4 15 -24 -15 -11 -47 21
-18 17 -21 22 -7 9 15 -12 29 -19 33 -16 10 10 -34 82 -52 87 -11 3 -9 5 5 6
12 0 38 -6 59 -15z m830 -54 c-24 -6 -19 -8 30 -9 43 -1 56 -4 45 -11 -12 -8
-12 -10 5 -11 11 -1 34 -1 50 0 l30 2 -28 -24 c-54 -45 -212 -118 -268 -124
-48 -5 -57 -2 -82 21 -21 20 -27 32 -22 49 23 77 95 115 215 115 45 0 50 -2
25 -8z m3665 -210 c0 -5 -2 -10 -4 -10 -3 0 -8 5 -11 10 -3 6 -1 10 4 10 6 0
11 -4 11 -10z m-1204 -137 c58 -124 127 -288 178 -425 l48 -126 -39 -36 c-21
-19 -40 -35 -43 -35 -3 -1 -18 40 -34 89 -15 49 -34 95 -42 101 -8 7 -12 14
-10 17 3 2 -11 36 -31 76 -20 39 -51 107 -70 151 l-34 80 6 -50 c3 -27 8 -66
11 -85 2 -20 -9 2 -28 53 -26 71 -33 85 -40 68 -4 -12 -5 -28 -2 -36 4 -8 1
-21 -4 -28 -6 -7 -14 -44 -17 -82 -4 -39 -20 -137 -35 -220 -16 -82 -31 -161
-32 -175 -2 -14 -7 40 -11 120 -9 167 -21 275 -44 378 -12 56 -13 76 -4 85 16
16 224 155 233 156 4 1 24 -34 44 -76z m-3181 -63 c-3 -5 -1 -10 6 -10 7 0 10
-3 6 -6 -9 -9 -28 6 -22 17 4 5 8 9 11 9 3 0 2 -4 -1 -10z m4713 -166 c8 -16
8 -21 -3 -21 -7 0 -11 6 -8 14 3 7 0 13 -6 13 -6 0 -11 -5 -11 -12 0 -6 -3 -8
-6 -5 -4 4 -1 13 6 22 7 9 14 14 15 13 1 -2 7 -12 13 -24z m-3494 -116 c-4 -7
-26 -40 -49 -73 -23 -33 -57 -87 -75 -120 -44 -81 -128 -193 -174 -233 -20
-17 -60 -44 -89 -59 -48 -25 -61 -28 -167 -28 -95 0 -128 4 -190 25 -102 33
-316 142 -312 158 1 8 -2 11 -9 6 -6 -3 -14 -2 -18 3 -3 5 -46 31 -95 57 -123
65 -281 167 -296 190 -11 17 -9 17 21 -3 45 -30 239 -123 359 -173 124 -51
219 -75 349 -90 238 -26 442 54 645 255 96 94 115 110 100 85z m-78 -225 c-42
-70 -103 -160 -136 -200 -61 -74 -196 -191 -207 -179 -3 3 21 34 53 68 33 35
113 135 178 223 120 161 176 228 184 220 2 -2 -30 -62 -72 -132z m4211 105
c-3 -8 -6 -5 -6 6 -1 11 2 17 5 13 3 -3 4 -12 1 -19z m-688 -112 c37 -17 83
-80 96 -133 14 -54 11 -66 -9 -37 -46 63 -47 63 -41 9 4 -42 3 -46 -5 -25 -19
44 -80 96 -64 55 11 -29 -19 -15 -62 29 -34 34 -44 51 -44 77 0 26 3 30 12 21
15 -15 32 -16 23 -2 -19 31 35 35 94 6z m399 -91 c-3 -3 -9 2 -12 12 -6 14 -5
15 5 6 7 -7 10 -15 7 -18z m44 -92 c0 -13 5 -20 10 -17 5 3 9 0 7 -7 -3 -27 1
-40 11 -34 6 4 7 -1 3 -11 -4 -11 -3 -15 5 -10 6 3 15 -2 21 -12 8 -15 6 -18
-14 -18 -16 0 -21 4 -17 16 3 8 2 12 -3 8 -10 -9 -35 10 -35 25 0 6 7 2 15 -9
8 -10 15 -14 15 -8 0 5 -12 26 -26 45 -23 31 -25 32 -21 9 2 -14 2 -19 0 -12
-3 7 -9 10 -14 7 -5 -4 -7 8 -4 27 3 18 3 27 -1 21 -3 -7 -10 -13 -15 -13 -6
0 -2 11 8 24 l18 24 7 -21 c5 -14 6 -8 4 18 l-4 40 15 -35 c8 -19 15 -45 15
-57z m216 1 c27 -14 81 -30 118 -36 89 -12 94 -13 128 -3 23 6 27 5 20 -6 -4
-8 11 1 35 20 40 32 43 33 36 12 -8 -25 2 -23 37 6 19 17 25 10 28 -37 5 -63
0 -77 -42 -125 -50 -56 -106 -85 -168 -85 -54 0 -135 23 -135 38 0 6 -4 14 -9
19 -5 5 -6 3 -2 -4 4 -7 3 -13 -3 -13 -14 0 -56 63 -53 78 2 8 -3 21 -11 30
-24 29 -28 40 -15 48 7 4 10 4 7 0 -4 -4 4 -19 17 -33 19 -21 27 -24 37 -14 9
10 9 11 -4 6 -11 -4 -22 8 -40 47 -13 29 -27 55 -31 56 -8 4 -11 22 -4 22 2 0
27 -12 54 -26z m-238 -85 c15 -28 5 -23 -15 7 -9 15 -12 23 -6 20 6 -4 16 -16
21 -27z m-419 -4 c45 -19 86 -52 76 -61 -4 -4 -7 -2 -7 4 0 7 -5 12 -10 12 -6
0 -8 -11 -4 -26 5 -20 4 -25 -5 -19 -9 5 -12 -1 -10 -21 6 -75 -1 -113 -26
-140 -14 -15 -25 -21 -25 -14 0 7 -3 11 -6 8 -3 -3 2 -23 10 -43 25 -59 19
-71 -15 -29 -45 57 -61 102 -62 169 0 62 27 175 42 175 5 0 24 -7 42 -15z
m-3093 -60 c-14 -31 -18 -28 -11 7 3 15 9 25 14 23 4 -3 3 -17 -3 -30z m3208
-61 c3 -15 1 -23 -5 -20 -5 3 -12 0 -15 -6 -3 -7 -3 -2 0 11 5 17 3 21 -6 16
-9 -6 -11 -4 -4 6 5 8 7 23 6 34 -2 19 -2 19 8 2 7 -10 14 -29 16 -43z m-23
-99 c-3 -9 -8 -14 -10 -11 -3 3 -2 9 2 15 9 16 15 13 8 -4z m981 -21 c31 -80
-85 -285 -195 -348 -19 -11 -31 -16 -27 -11 4 4 -1 20 -11 34 -10 14 -24 44
-31 66 -7 22 -16 45 -21 51 -5 6 -7 14 -4 17 3 4 2 5 -2 2 -9 -7 -53 36 -47
46 3 5 0 9 -5 9 -6 0 -11 -6 -11 -12 -1 -8 -6 -6 -14 4 -7 10 -15 15 -18 13
-3 -3 -13 3 -22 14 -10 11 -13 22 -8 25 5 3 15 -1 22 -9 7 -8 18 -15 24 -15 6
0 4 5 -4 10 -13 8 -12 10 4 10 12 0 16 5 13 14 -4 10 -1 13 9 9 7 -3 14 0 14
6 0 6 12 10 28 10 23 -2 24 -2 5 -6 -13 -2 -23 -8 -23 -12 0 -4 24 -3 52 3 49
10 50 11 23 17 -22 5 -13 7 35 9 112 5 119 6 157 33 45 31 49 32 57 11z
m-1013 -95 c-5 -13 -10 -19 -10 -12 -1 15 10 45 15 40 3 -2 0 -15 -5 -28z
m766 -256 c-3 -10 -5 -4 -5 12 0 17 2 24 5 18 2 -7 2 -21 0 -30z"/>
<path d="M4213 9859 c-125 -14 -318 -57 -442 -98 -146 -48 -428 -170 -396
-170 16 -1 101 26 131 42 143 73 523 184 739 216 129 18 106 26 -32 10z"/>
<path d="M5645 8990 c-3 -5 1 -10 10 -10 9 0 13 5 10 10 -3 6 -8 10 -10 10 -2
0 -7 -4 -10 -10z"/>
<path d="M4360 8820 c-9 -6 -10 -10 -3 -10 6 0 15 5 18 10 8 12 4 12 -15 0z"/>
<path d="M2052 7915 c0 -16 2 -22 5 -12 2 9 2 23 0 30 -3 6 -5 -1 -5 -18z"/>
<path d="M5498 8363 c7 -3 16 -2 19 1 4 3 -2 6 -13 5 -11 0 -14 -3 -6 -6z"/>
<path d="M6315 8140 c10 -11 20 -20 23 -20 3 0 -3 9 -13 20 -10 11 -20 20 -23
20 -3 0 3 -9 13 -20z"/>
<path d="M6340 8106 c0 -2 8 -10 18 -17 15 -13 16 -12 3 4 -13 16 -21 21 -21
13z"/>
<path d="M3684 7543 c2 -15 -1 -23 -9 -23 -16 0 -30 -19 -20 -28 3 -3 10 0 15
8 13 21 22 6 14 -25 -5 -19 -9 -23 -15 -14 -6 10 -8 7 -6 -8 0 -12 4 -20 8
-17 4 2 10 -8 12 -23 3 -20 4 -17 4 9 -1 21 5 44 12 50 11 11 12 6 7 -27 -4
-28 -3 -34 4 -20 5 11 9 31 10 45 l2 25 8 -25 c10 -30 12 -5 3 28 -4 17 -8 20
-14 11 -6 -10 -13 -4 -24 21 -9 19 -14 25 -11 13z"/>
<path d="M3726 7383 c9 -51 14 -54 14 -10 0 20 -5 39 -11 42 -7 5 -8 -5 -3
-32z"/>
<path d="M3701 7374 c0 -11 3 -14 6 -6 3 7 2 16 -1 19 -3 4 -6 -2 -5 -13z"/>
<path d="M4930 6850 c0 -5 5 -10 11 -10 5 0 7 5 4 10 -3 6 -8 10 -11 10 -2 0
-4 -4 -4 -10z"/>
<path d="M4881 6841 c-8 -6 -9 -11 -3 -15 6 -3 14 -1 17 5 9 14 2 20 -14 10z"/>
<path d="M4700 6761 c0 -6 4 -13 10 -16 6 -3 7 1 4 9 -7 18 -14 21 -14 7z"/>
<path d="M6918 6793 c7 -3 16 -2 19 1 4 3 -2 6 -13 5 -11 0 -14 -3 -6 -6z"/>
<path d="M4132 6640 c0 -14 2 -19 5 -12 2 6 2 18 0 25 -3 6 -5 1 -5 -13z"/>
<path d="M6047 6335 c-15 -8 -31 -14 -35 -13 -4 1 -32 -48 -63 -108 -31 -60
-73 -127 -94 -149 -20 -22 -31 -31 -24 -20 12 18 11 18 -2 5 -58 -56 -147
-174 -173 -229 -29 -61 -31 -74 -31 -174 0 -93 -2 -104 -12 -80 -7 16 -12 21
-13 11 -1 -39 59 -140 80 -135 3 0 25 -11 50 -26 71 -41 190 -60 245 -38 17 7
14 10 -20 20 -22 6 -46 11 -53 11 -21 0 -86 37 -110 63 l-23 24 53 -4 c29 -3
75 -8 101 -12 l48 -8 -16 23 c-14 22 -39 113 -32 120 2 2 20 -19 41 -47 51
-66 115 -103 163 -96 87 15 111 83 89 255 -8 65 -18 180 -22 257 -8 156 -9
174 -17 195 -2 8 -11 35 -18 60 -17 57 -50 110 -69 110 -8 0 -27 -7 -43 -15z
m41 -171 c-4 -61 -11 -82 -43 -138 -22 -36 -40 -64 -42 -62 -2 2 11 34 29 72
28 60 33 82 37 169 3 86 5 95 14 65 5 -19 7 -67 5 -106z m-429 -676 c12 -21
20 -38 18 -38 -7 0 -47 65 -47 75 0 10 1 8 29 -37z"/>
<path d="M3348 6153 c7 -3 16 -2 19 1 4 3 -2 6 -13 5 -11 0 -14 -3 -6 -6z"/>
<path d="M3791 6100 c9 -5 31 -12 50 -15 22 -3 29 -2 19 4 -8 4 -31 11 -50 14
-24 5 -30 4 -19 -3z"/>
<path d="M4648 5563 c7 -3 16 -2 19 1 4 3 -2 6 -13 5 -11 0 -14 -3 -6 -6z"/>
<path d="M4981 5228 c-10 -30 -9 -31 4 -14 8 11 15 26 15 33 0 22 -8 14 -19
-19z"/>
<path d="M6425 6600 c-3 -5 -1 -10 4 -10 6 0 11 5 11 10 0 6 -2 10 -4 10 -3 0
-8 -4 -11 -10z"/>
<path d="M1600 2933 c13 -18 25 -33 27 -33 8 0 -17 38 -33 51 -11 9 -9 2 6
-18z"/>
<path d="M1647 2877 c10 -17 192 -229 211 -247 18 -17 24 -25 -62 85 -26 33
-54 67 -61 77 -7 9 -11 19 -7 23 3 3 -4 8 -16 12 -12 3 -19 10 -15 16 4 6 1 7
-7 2 -9 -6 -12 -4 -8 6 4 9 -4 19 -18 26 -18 8 -22 8 -17 0z"/>
<path d="M3591 5114 c0 -11 3 -14 6 -6 3 7 2 16 -1 19 -3 4 -6 -2 -5 -13z"/>
<path d="M3671 4360 c6 -19 16 -39 21 -45 5 -5 3 6 -3 25 -6 19 -16 39 -21 45
-5 5 -3 -6 3 -25z"/>
<path d="M3486 4218 c15 -49 23 -64 46 -85 21 -20 98 -59 98 -49 0 2 -18 16
-40 31 -22 16 -55 50 -72 77 -35 53 -43 60 -32 26z"/>
<path d="M4135 3861 c-3 -5 -2 -12 3 -15 5 -3 9 1 9 9 0 17 -3 19 -12 6z"/>
<path d="M4400 3712 c1 -9 60 -75 65 -70 2 1 -12 20 -31 40 -19 21 -34 34 -34
30z"/>
<path d="M4420 3625 c-7 -9 -8 -15 -2 -15 5 0 12 7 16 15 3 8 4 15 2 15 -2 0
-9 -7 -16 -15z"/>
<path d="M4441 3601 c-8 -14 -7 -22 7 -32 9 -7 14 -9 10 -5 -4 5 0 15 10 23
16 12 16 13 0 7 -20 -7 -25 12 -5 19 9 4 9 6 0 6 -7 1 -17 -8 -22 -18z"/>
<path d="M4520 3570 c0 -5 5 -10 11 -10 5 0 7 5 4 10 -3 6 -8 10 -11 10 -2 0
-4 -4 -4 -10z"/>
<path d="M4506 3508 c3 -5 10 -6 15 -3 13 9 11 12 -6 12 -8 0 -12 -4 -9 -9z"/>
<path d="M4552 3490 c3 -29 4 -30 135 -168 54 -57 108 -108 121 -113 13 -5 20
-13 17 -19 -4 -7 2 -7 19 0 17 6 26 6 26 0 0 -6 5 -10 11 -10 5 0 7 4 4 10 -3
6 1 7 10 3 13 -5 14 -7 3 -14 -11 -7 -10 -11 2 -19 8 -5 10 -10 4 -10 -6 0
-17 7 -24 15 -15 18 -30 20 -30 3 0 -6 3 -9 6 -5 3 3 16 -3 28 -15 42 -41 193
-96 225 -82 9 4 29 6 45 5 20 -2 26 1 21 9 -6 9 2 11 26 6 l34 -6 -35 15 -35
14 43 -6 c28 -4 42 -2 42 6 0 10 -16 15 -47 14 -7 -1 -10 3 -7 8 3 5 -4 9 -15
9 -11 0 -23 -5 -27 -12 -5 -7 -11 -5 -21 7 -7 11 -13 16 -13 13 0 -9 -103 32
-122 49 -9 8 -22 12 -29 7 -7 -4 -10 -3 -6 2 9 15 -5 30 -50 53 -49 24 -69 26
-80 7 -4 -7 -18 -19 -31 -25 -22 -12 -23 -11 -13 7 8 15 7 23 -4 32 -8 7 -15
19 -15 26 0 8 -4 14 -10 14 -5 0 -9 6 -7 12 1 7 -8 14 -20 16 -13 2 -23 10
-23 18 0 8 -10 19 -22 25 -13 6 -39 31 -58 54 -19 24 -39 42 -45 41 -5 -2 -16
4 -23 13 -11 14 -12 13 -10 -9z m172 -158 c3 -5 -1 -9 -9 -9 -8 0 -12 4 -9 9
3 4 7 8 9 8 2 0 6 -4 9 -8z m221 -211 c-6 -5 -25 10 -25 20 0 5 6 4 14 -3 8
-7 12 -15 11 -17z m190 -31 c-11 -5 -31 -8 -45 -8 l-25 0 25 8 c14 4 34 8 45
8 l20 1 -20 -9z"/>
<path d="M4790 3381 c0 -5 7 -12 16 -15 14 -5 15 -4 4 9 -14 17 -20 19 -20 6z"/>
<path d="M4790 3311 c0 -9 30 -24 36 -18 2 1 -6 8 -16 15 -11 7 -20 8 -20 3z"/>
<path d="M5745 3310 c-3 -5 -1 -10 4 -10 6 0 11 5 11 10 0 6 -2 10 -4 10 -3 0
-8 -4 -11 -10z"/>
<path d="M4970 3250 c8 -5 22 -9 30 -9 10 0 8 3 -5 9 -27 12 -43 12 -25 0z"/>
<path d="M5350 3110 c-9 -6 -10 -10 -3 -10 6 0 15 5 18 10 8 12 4 12 -15 0z"/>
<path d="M2552 4125 c0 -16 2 -22 5 -12 2 9 2 23 0 30 -3 6 -5 -1 -5 -18z"/>
<path d="M1966 2712 c-3 -5 1 -9 9 -9 8 0 12 4 9 9 -3 4 -7 8 -9 8 -2 0 -6 -4
-9 -8z"/>
<path d="M2062 2601 c-11 -6 -10 -10 0 -19 11 -8 14 -7 14 9 0 10 0 19 -1 19
0 0 -6 -4 -13 -9z"/>
<path d="M2139 2503 c18 -24 37 -44 42 -44 19 -3 24 -5 37 -12 7 -5 10 -13 7
-18 -3 -5 1 -6 10 -3 14 6 13 8 -5 21 -11 8 -18 18 -15 23 3 5 -5 7 -19 4 -27
-5 -52 18 -40 38 4 7 3 10 -1 5 -5 -4 -18 1 -29 10 -11 10 -5 -1 13 -24z"/>
<path d="M2430 2266 c0 -2 7 -7 16 -10 8 -3 12 -2 9 4 -6 10 -25 14 -25 6z"/>
<path d="M2721 1754 c0 -11 3 -14 6 -6 3 7 2 16 -1 19 -3 4 -6 -2 -5 -13z"/>
<path d="M2388 1737 c-7 -13 -7 -17 0 -13 6 3 14 1 17 -5 4 -5 14 -8 22 -5 10
4 13 2 10 -8 -4 -10 -1 -13 9 -9 17 6 18 20 2 26 -10 4 -9 8 2 16 8 6 11 11 5
12 -5 0 -20 2 -33 3 -14 2 -27 -5 -34 -17z m45 -5 c-6 -14 -25 -12 -30 4 -2 5
5 10 16 10 11 0 17 -5 14 -14z"/>
<path d="M2529 1650 c-13 -10 -21 -20 -16 -21 4 -1 10 -2 15 -3 4 -1 12 -4 18
-8 6 -4 10 4 10 23 0 16 -1 29 -2 29 -1 0 -12 -9 -25 -20z m21 -8 c0 -5 -7 -9
-15 -9 -8 0 -12 4 -9 9 3 4 9 8 15 8 5 0 9 -4 9 -8z"/>
<path d="M4740 4840 c0 -5 5 -10 11 -10 5 0 7 5 4 10 -3 6 -8 10 -11 10 -2 0
-4 -4 -4 -10z"/>
<path d="M5332 4710 c0 -14 2 -19 5 -12 2 6 2 18 0 25 -3 6 -5 1 -5 -13z"/>
<path d="M5501 4844 c0 -11 3 -14 6 -6 3 7 2 16 -1 19 -3 4 -6 -2 -5 -13z"/>
<path d="M5461 4704 c0 -11 3 -14 6 -6 3 7 2 16 -1 19 -3 4 -6 -2 -5 -13z"/>
<path d="M6421 4426 c-24 -13 -23 -14 33 -35 63 -23 92 -26 102 -10 3 6 15 9
25 6 30 -8 23 0 -24 28 -48 27 -99 32 -136 11z"/>
<path d="M6283 4342 c-56 -6 -37 -19 56 -41 105 -25 115 -25 108 -7 -4 11 -1
13 11 10 15 -5 15 -4 1 5 -17 11 -61 22 -100 26 -14 1 -30 4 -35 6 -5 2 -24 3
-41 1z"/>
<path d="M6703 4340 c-27 -11 -30 -45 -8 -77 17 -25 99 -58 167 -68 39 -6 49
-4 67 14 20 20 20 23 6 51 -18 35 -59 65 -76 54 -7 -4 -9 -3 -5 4 4 6 -13 14
-44 21 -60 13 -77 13 -107 1z m130 -36 c26 -14 47 -27 47 -29 0 -6 -50 5 -65
14 -5 3 -12 6 -15 7 -17 3 -60 29 -60 36 0 12 32 2 93 -28z"/>
<path d="M6730 4039 c-7 -11 -10 -23 -7 -25 2 -2 9 7 15 21 14 30 7 33 -8 4z"/>
<path d="M6915 4021 c-18 -7 -18 -8 5 -23 31 -19 118 -41 131 -33 5 4 9 14 9
24 0 29 -98 50 -145 32z"/>
<path d="M7285 4020 c-6 -10 -4 -12 9 -7 14 6 17 3 12 -8 -15 -39 93 -95 195
-103 54 -4 67 -2 72 11 7 19 -35 57 -96 88 -50 26 -180 38 -192 19z m185 -33
c14 -5 20 -11 15 -13 -6 -3 -29 5 -50 16 -39 20 -18 18 35 -3z"/>
<path d="M7856 3905 c-43 -21 -46 -24 -29 -33 34 -19 196 -42 228 -34 47 13
40 43 -15 63 -81 29 -129 30 -184 4z"/>
<path d="M7084 3871 c3 -4 27 -14 53 -20 27 -7 58 -17 71 -22 12 -5 22 -5 22
0 0 5 -21 14 -47 20 -27 7 -56 17 -65 22 -22 11 -41 12 -34 0z"/>
<path d="M5420 4303 c0 -5 14 -24 30 -42 27 -29 35 -32 65 -27 19 4 36 2 40
-4 3 -5 11 -10 16 -10 6 0 -3 16 -20 37 -20 25 -39 37 -58 38 -15 0 -38 4 -50
9 -13 4 -23 4 -23 -1z"/>
<path d="M5772 4172 c-20 -13 126 -24 163 -12 26 8 21 9 -30 8 -33 -1 -73 2
-90 6 -16 3 -36 3 -43 -2z"/>
<path d="M5990 4113 c-70 -11 -74 -13 -57 -30 10 -11 41 -18 90 -21 67 -4 76
-7 90 -31 23 -40 52 -62 91 -71 20 -4 36 -5 36 -2 0 3 -11 24 -25 47 -13 23
-22 45 -20 49 3 3 2 4 -1 1 -4 -2 -21 6 -38 19 -31 24 -97 47 -126 45 -8 -1
-26 -3 -40 -6z"/>
<path d="M6415 3949 c-4 -6 -5 -12 -2 -15 2 -3 7 2 10 11 7 17 1 20 -8 4z"/>
<path d="M6433 3906 c0 -25 77 -66 124 -66 50 0 58 20 16 39 -22 11 -125 41
-137 41 -1 0 -3 -6 -3 -14z"/>
<path d="M6702 3818 c26 -39 62 -54 94 -39 l28 12 -59 25 c-74 30 -81 30 -63
2z"/>
<path d="M7875 4311 c-3 -6 -11 -9 -16 -6 -5 3 -6 -1 -3 -9 8 -21 20 -20 28 0
8 20 1 30 -9 15z"/>
<path d="M5121 3974 c0 -11 3 -14 6 -6 3 7 2 16 -1 19 -3 4 -6 -2 -5 -13z"/>
<path d="M2865 3800 c-3 -6 1 -7 9 -4 18 7 21 14 7 14 -6 0 -13 -4 -16 -10z"/>
<path d="M7621 3617 c-14 -17 -8 -22 36 -31 19 -5 34 -3 38 4 16 26 -53 51
-74 27z"/>
<path d="M6176 3293 c-6 -14 -5 -15 5 -6 7 7 10 15 7 18 -3 3 -9 -2 -12 -12z"/>
<path d="M6241 3245 c0 -5 6 -21 14 -35 8 -14 14 -20 14 -15 0 6 -6 21 -14 35
-8 14 -14 21 -14 15z"/>
<path d="M6265 3070 c3 -5 8 -10 11 -10 2 0 4 5 4 10 0 6 -5 10 -11 10 -5 0
-7 -4 -4 -10z"/>
<path d="M5937 2986 c-4 -11 -1 -13 10 -9 12 5 14 3 8 -7 -5 -8 -4 -11 3 -6 6
3 13 -2 15 -11 4 -15 5 -15 6 -2 0 9 -7 24 -18 33 -16 15 -19 15 -24 2z"/>
<path d="M5911 2934 c0 -11 3 -14 6 -6 3 7 2 16 -1 19 -3 4 -6 -2 -5 -13z"/>
<path d="M5878 2883 c7 -3 16 -2 19 1 4 3 -2 6 -13 5 -11 0 -14 -3 -6 -6z"/>
<path d="M6071 2858 c2 -2 18 -14 34 -28 l30 -25 -24 28 c-14 15 -29 27 -34
27 -6 0 -8 -1 -6 -2z"/>
<path d="M6136 2785 c4 -8 11 -15 16 -15 6 0 5 6 -2 15 -7 8 -14 15 -16 15 -2
0 -1 -7 2 -15z"/>
<path d="M6496 2741 c-3 -5 2 -15 12 -22 15 -12 16 -12 5 2 -7 9 -10 19 -6 22
3 4 4 7 0 7 -3 0 -8 -4 -11 -9z"/>
<path d="M6524 2689 c-3 -6 -2 -15 3 -20 5 -5 9 -1 9 11 0 23 -2 24 -12 9z"/>
<path d="M6371 2474 c0 -11 3 -14 6 -6 3 7 2 16 -1 19 -3 4 -6 -2 -5 -13z"/>
<path d="M6397 2464 c-3 -3 -3 -12 0 -20 4 -10 9 -11 23 -1 14 8 16 13 7 19
-15 9 -22 10 -30 2z"/>
<path d="M6440 2434 c-8 -3 -20 -15 -26 -28 l-11 -24 39 14 c55 19 63 25 47
35 -15 9 -24 10 -49 3z m37 -10 c-3 -3 -12 -4 -19 -1 -8 3 -5 6 6 6 11 1 17
-2 13 -5z"/>
<path d="M6478 2386 c-26 -13 -45 -26 -42 -29 7 -7 80 28 89 43 8 13 8 13 -47
-14z"/>
<path d="M6580 2389 c0 -5 -5 -7 -12 -3 -7 4 -8 3 -4 -4 4 -6 13 -9 21 -6 8 4
12 10 9 15 -7 12 -14 11 -14 -2z"/>
<path d="M6100 2146 c0 -2 7 -7 16 -10 8 -3 12 -2 9 4 -6 10 -25 14 -25 6z"/>
<path d="M6080 2130 c0 -5 5 -10 11 -10 5 0 7 5 4 10 -3 6 -8 10 -11 10 -2 0
-4 -4 -4 -10z"/>
<path d="M5306 2107 c3 -10 9 -15 12 -12 3 3 0 11 -7 18 -10 9 -11 8 -5 -6z"/>
<path d="M5888 2053 c7 -3 16 -2 19 1 4 3 -2 6 -13 5 -11 0 -14 -3 -6 -6z"/>
<path d="M5838 2037 c-16 -6 -28 -15 -28 -19 0 -5 14 -2 30 7 17 9 30 18 30
20 0 3 -1 5 -2 4 -2 -1 -15 -6 -30 -12z"/>
<path d="M5655 1960 c-3 -6 1 -7 9 -4 18 7 21 14 7 14 -6 0 -13 -4 -16 -10z"/>
<path d="M5468 1903 c6 -2 18 -2 25 0 6 3 1 5 -13 5 -14 0 -19 -2 -12 -5z"/>
<path d="M5203 1745 c0 -8 4 -12 9 -9 5 3 6 10 3 15 -9 13 -12 11 -12 -6z"/>
<path d="M5157 1700 c-3 -11 -1 -23 4 -26 5 -3 9 6 9 20 0 31 -6 34 -13 6z"/>
<path d="M5170 1636 c0 -9 5 -16 10 -16 6 0 10 4 10 9 0 6 -4 13 -10 16 -5 3
-10 -1 -10 -9z"/>
<path d="M5287 1523 c-10 -9 -8 -43 2 -43 5 0 11 11 13 25 5 24 -2 32 -15 18z"/>
<path d="M5101 1464 c0 -11 3 -14 6 -6 3 7 2 16 -1 19 -3 4 -6 -2 -5 -13z"/>
<path d="M5366 1327 c3 -10 9 -15 12 -12 3 3 0 11 -7 18 -10 9 -11 8 -5 -6z"/>
<path d="M5281 1163 c-1 -12 4 -25 9 -28 12 -7 12 2 0 30 -8 19 -9 19 -9 -2z"/>
<path d="M5207 935 c3 -8 9 -12 14 -9 12 7 11 11 -5 17 -10 4 -13 1 -9 -8z"/>
<path d="M5135 880 c-3 -6 1 -7 9 -4 18 7 21 14 7 14 -6 0 -13 -4 -16 -10z"/>
<path d="M5030 837 c0 -19 16 -31 24 -18 3 5 -1 14 -9 21 -12 10 -15 10 -15
-3z"/>
<path d="M7387 3429 c7 -7 15 -10 18 -7 3 3 -2 9 -12 12 -14 6 -15 5 -6 -5z"/>
<path d="M7638 2395 c18 -34 41 -61 42 -48 0 7 -12 25 -26 40 -17 18 -23 21
-16 8z"/>
<path d="M7710 2282 c6 -13 14 -21 18 -18 3 4 -2 14 -12 24 -18 16 -18 16 -6
-6z"/>
<path d="M7735 2250 c-3 -5 -1 -10 4 -10 6 0 11 5 11 10 0 6 -2 10 -4 10 -3 0
-8 -4 -11 -10z"/>
<path d="M4586 1998 l-30 -30 32 16 c34 17 47 32 35 39 -5 3 -21 -9 -37 -25z"/>
<path d="M3590 1337 c0 -6 120 -47 134 -46 6 0 -11 8 -39 18 -76 27 -95 33
-95 28z"/>
<path d="M9029 1203 c-13 -16 -12 -17 4 -4 16 13 21 21 13 21 -2 0 -10 -8 -17
-17z"/>
<path d="M8056 937 c3 -10 9 -15 12 -12 3 3 0 11 -7 18 -10 9 -11 8 -5 -6z"/>
<path d="M7940 621 c0 -5 5 -13 10 -16 6 -3 10 -2 10 4 0 5 -4 13 -10 16 -5 3
-10 2 -10 -4z"/>
</g>
</svg>
